<?xml version="1.0" standalone="no"?>
<!DOCTYPE svg PUBLIC "-//W3C//DTD SVG 20010904//EN"
 "http://www.w3.org/TR/2001/REC-SVG-20010904/DTD/svg10.dtd">
<svg version="1.0" xmlns="http://www.w3.org/2000/svg"
 width="2000.000000pt" height="1384.000000pt" viewBox="0 0 2000.000000 1384.000000"
 preserveAspectRatio="xMidYMid meet">

<g transform="translate(0.000000,1384.000000) scale(0.100000,-0.100000)"
fill="#000000" stroke="none">
<path d="M7003 13338 c-27 -16 -35 -17 -53 -6 -19 12 -24 9 -58 -30 -29 -33
-44 -43 -67 -42 -45 1 -148 -20 -163 -34 -10 -10 -9 -17 8 -39 24 -31 19 -47
-15 -47 -15 0 -31 -11 -44 -29 -13 -18 -34 -32 -54 -36 -66 -13 -69 -15 -64
-43 8 -40 0 -48 -39 -44 -24 3 -39 -1 -47 -11 -10 -13 -20 -14 -66 -5 -55 11
-70 5 -84 -36 -3 -8 -12 -7 -31 2 -15 6 -40 12 -56 12 -23 0 -30 -5 -30 -20 0
-27 -41 -52 -98 -57 -53 -6 -74 -25 -66 -60 6 -22 5 -23 -65 -23 -78 0 -98
-14 -67 -49 15 -16 15 -19 1 -31 -23 -19 -15 -54 13 -58 24 -4 28 -12 11 -29
-7 -7 -30 -10 -61 -6 -38 5 -53 2 -68 -12 -15 -13 -29 -16 -58 -11 -55 8 -76
-9 -65 -54 8 -31 14 -35 44 -38 19 -1 41 -5 49 -8 26 -9 -11 -24 -62 -24 -42
0 -48 -3 -69 -37 -13 -21 -25 -41 -27 -45 -2 -5 17 -28 42 -53 38 -39 48 -44
65 -36 29 16 81 13 87 -4 5 -11 24 -15 81 -15 70 0 76 2 102 30 16 18 41 33
62 36 29 5 38 1 62 -25 19 -21 36 -31 57 -31 19 0 33 -7 40 -19 18 -35 12 -50
-25 -57 -36 -6 -49 -33 -17 -35 9 0 12 -3 5 -5 -7 -3 -9 -12 -7 -19 5 -12 10
-11 32 3 21 14 25 14 20 2 -3 -8 -9 -23 -13 -32 -5 -12 -2 -18 8 -18 8 0 20
13 27 29 6 16 20 31 30 34 14 4 19 -3 23 -34 3 -20 16 -53 30 -71 19 -24 27
-48 29 -88 3 -53 4 -56 57 -95 l54 -40 -39 -7 c-59 -10 -94 -26 -94 -43 0 -18
34 -41 74 -51 16 -4 41 -13 55 -20 14 -8 37 -14 50 -14 19 0 22 -4 18 -22 -3
-13 -9 -40 -13 -61 -5 -31 -13 -41 -45 -57 -53 -27 -64 -52 -49 -104 6 -23 21
-56 32 -73 16 -27 18 -43 13 -87 -5 -40 -3 -62 8 -83 8 -15 20 -53 27 -84 6
-31 24 -77 40 -103 42 -66 111 -138 127 -132 8 3 13 -2 13 -13 0 -44 10 -52
56 -45 39 6 44 4 44 -13 0 -11 6 -28 14 -38 11 -16 19 -17 57 -9 31 6 45 15
47 28 2 11 10 25 17 33 7 7 16 50 20 98 4 47 11 85 15 85 12 0 27 48 39 119 6
35 18 73 28 83 13 15 19 43 23 111 l5 92 35 12 c19 7 65 12 101 12 108 1 128
8 145 51 13 31 19 37 46 37 24 0 40 9 65 38 25 29 37 36 54 32 33 -9 55 8 74
56 16 42 18 44 58 43 29 -1 41 3 39 12 -1 6 16 29 39 49 34 31 47 37 79 34 72
-5 93 50 35 95 -33 25 -34 29 -29 68 8 52 10 53 33 31 11 -9 23 -37 27 -61 8
-54 23 -68 58 -54 14 5 26 14 26 18 0 5 18 21 41 36 l40 27 -20 32 c-12 20
-18 42 -14 55 7 26 -12 52 -38 52 -14 0 -21 9 -26 30 -3 18 -18 39 -35 51 -23
17 -26 24 -17 35 18 21 33 17 57 -16 13 -16 30 -30 40 -30 21 0 52 52 52 88 0
21 8 31 33 42 27 13 33 21 35 54 5 54 -5 89 -23 82 -22 -8 -19 29 7 91 18 45
19 55 8 83 -7 17 -28 42 -45 56 l-33 25 15 47 c8 26 12 63 10 82 -4 32 -1 38
29 58 24 16 37 34 46 65 9 35 18 46 52 62 47 23 55 47 37 107 -14 46 -30 48
-80 8 -33 -27 -43 -30 -101 -28 l-64 3 0 -30 c-1 -30 -1 -30 -51 -27 -27 2
-76 -2 -108 -9 -55 -11 -59 -11 -73 10 -8 11 -23 21 -32 21 -16 1 -16 2 1 14
9 7 17 20 17 29 0 9 12 18 28 21 15 4 41 18 57 31 25 21 28 26 15 35 -8 5 -28
10 -45 10 -45 0 -75 11 -75 26 0 8 -9 23 -20 34 -16 16 -28 19 -63 14 -33 -5
-53 -1 -85 15 -29 15 -60 21 -106 21 -36 0 -67 4 -71 9 -5 9 -50 16 -170 25
-47 3 -67 0 -92 -16z m267 -44 c26 -9 62 -14 87 -11 30 3 50 -1 70 -14 19 -13
46 -19 85 -19 53 0 57 -2 66 -29 8 -24 18 -31 48 -37 l37 -7 -36 -18 c-20 -11
-40 -25 -44 -33 -4 -7 -37 -20 -73 -27 -54 -12 -65 -18 -65 -34 0 -18 8 -20
84 -23 73 -2 84 -5 88 -22 6 -24 62 -27 125 -8 31 9 50 9 86 -1 44 -11 48 -11
64 10 10 11 18 30 18 40 0 16 6 17 50 12 44 -5 54 -2 86 22 29 22 38 25 45 14
24 -37 -6 -79 -56 -79 -9 0 -19 -18 -26 -45 -7 -29 -21 -53 -38 -65 -52 -39
-53 -41 -47 -80 3 -22 -1 -58 -9 -89 -17 -57 -10 -85 25 -96 11 -4 27 -20 36
-36 14 -28 14 -33 -6 -74 -13 -26 -22 -66 -23 -102 -2 -54 0 -58 21 -61 40 -6
22 -40 -30 -56 -13 -4 -18 -16 -18 -44 0 -55 -20 -69 -50 -37 -27 29 -45 31
-89 9 -41 -20 -39 -51 6 -79 18 -11 32 -25 33 -32 0 -27 24 -62 44 -65 14 -2
20 -9 18 -22 -2 -10 2 -31 8 -47 11 -25 9 -30 -22 -58 -18 -17 -36 -31 -40
-31 -3 0 -9 18 -13 40 -8 50 -48 100 -80 100 -25 0 -35 -17 -35 -60 0 -16 -7
-30 -15 -34 -26 -10 -16 -33 30 -67 24 -19 43 -38 41 -44 -2 -5 -20 -9 -41 -8
-31 2 -45 -4 -83 -38 l-47 -41 -21 28 c-28 34 -49 27 -58 -20 -4 -19 -16 -56
-27 -81 -19 -42 -22 -45 -59 -45 -33 0 -42 -4 -54 -29 -16 -30 -48 -49 -54
-32 -8 24 -33 8 -58 -36 -15 -27 -29 -50 -31 -53 -2 -2 -51 -7 -108 -10 -146
-8 -158 -18 -165 -132 -3 -58 -11 -93 -24 -112 -10 -16 -24 -62 -31 -103 -7
-41 -20 -82 -29 -91 -9 -11 -18 -48 -22 -100 -4 -49 -12 -86 -20 -93 -8 -6
-14 -17 -14 -24 0 -7 -11 -15 -26 -18 -21 -4 -26 0 -31 24 -7 37 -17 43 -65
41 -36 -2 -38 0 -38 27 0 37 -25 64 -51 56 -14 -5 -26 1 -42 21 -52 65 -77
112 -88 164 -6 30 -17 67 -24 81 -9 17 -12 44 -9 80 5 45 2 62 -18 99 -48 89
-47 98 22 143 30 20 36 31 51 95 18 81 16 86 -45 95 -21 3 -46 13 -56 22 -9 8
-26 15 -38 15 -36 0 -34 19 3 26 23 4 41 2 48 -5 20 -20 37 -12 37 17 0 35
-13 51 -72 91 -47 32 -48 33 -48 86 0 42 -5 60 -25 83 -13 16 -27 49 -31 73
-5 31 -17 53 -39 75 -18 17 -40 45 -49 62 -16 30 -29 36 -67 33 -10 -1 -27 12
-39 29 -18 25 -28 30 -61 30 -45 0 -85 -18 -111 -49 -14 -17 -29 -21 -72 -21
-34 0 -58 5 -65 14 -17 21 -56 27 -87 16 -24 -10 -31 -7 -57 18 -28 29 -29 30
-12 56 14 20 25 26 55 26 39 0 110 25 110 38 0 24 -43 52 -80 52 -29 0 -40 4
-40 15 0 11 11 15 40 15 23 0 51 7 65 16 18 11 36 14 70 8 42 -6 49 -4 76 22
37 35 37 52 -1 65 -25 9 -28 14 -19 30 5 11 7 29 3 41 -6 20 -4 21 45 15 59
-7 81 7 81 54 0 26 3 29 33 29 44 1 114 34 122 59 8 25 16 26 56 5 29 -15 31
-14 58 15 26 28 29 29 74 18 38 -8 50 -7 71 6 16 11 35 15 55 11 33 -7 51 14
51 59 0 21 6 26 36 32 20 3 48 19 63 34 15 17 42 31 64 35 41 8 48 27 22 62
-8 10 -15 22 -15 25 0 8 104 29 143 29 21 0 39 10 61 34 23 26 35 32 47 26 10
-6 27 -3 50 10 29 16 49 18 129 15 52 -3 115 -12 140 -21z"/>
<path d="M14742 13080 c-68 -67 -89 -74 -94 -32 -5 40 -38 40 -114 -3 -54 -30
-78 -38 -142 -42 -89 -7 -103 -13 -234 -100 -75 -50 -104 -64 -121 -59 -34 8
-53 -12 -67 -71 l-12 -53 -51 0 c-49 0 -53 -2 -104 -57 -29 -32 -53 -65 -53
-74 0 -9 -8 -19 -18 -21 -23 -6 -47 -86 -38 -123 4 -14 22 -43 42 -65 27 -30
35 -48 36 -78 0 -22 -3 -45 -7 -52 -4 -6 1 -20 10 -30 17 -18 17 -20 1 -26
-13 -5 -29 6 -59 39 -34 36 -56 50 -111 67 l-68 22 -26 -26 -26 -26 23 -31
c23 -30 25 -64 6 -110 -3 -9 6 -30 25 -54 21 -27 30 -49 30 -75 0 -48 18 -62
85 -68 l54 -4 -40 -34 c-23 -19 -45 -34 -50 -34 -5 0 -23 16 -41 35 -17 20
-36 34 -42 32 -14 -5 -75 120 -69 143 3 10 -5 23 -20 33 -14 9 -30 32 -37 52
-6 19 -18 35 -25 35 -24 0 -28 21 -7 43 80 87 82 177 4 177 -10 0 -24 11 -30
25 -9 20 -19 25 -46 25 -18 0 -39 6 -45 14 -7 8 -32 21 -57 30 l-45 15 -11
-27 c-6 -15 -12 -47 -14 -72 -1 -25 -8 -57 -14 -72 -12 -24 -10 -32 13 -66
l25 -39 -29 -26 c-25 -22 -29 -32 -29 -76 0 -48 1 -51 32 -59 26 -6 34 -15 39
-40 4 -18 12 -38 19 -47 23 -27 -1 -37 -26 -10 -22 24 -29 26 -77 20 -34 -4
-76 -1 -120 9 -83 20 -92 16 -148 -64 -35 -50 -47 -60 -71 -60 -17 0 -41 8
-54 19 -19 15 -32 17 -66 11 -36 -7 -49 -4 -84 16 -22 13 -44 24 -48 24 -3 0
-26 -18 -51 -41 -38 -35 -49 -40 -74 -34 -26 5 -36 0 -83 -46 -29 -28 -73 -60
-97 -71 -24 -11 -62 -39 -85 -62 -33 -34 -41 -38 -44 -23 -2 10 1 32 7 49 13
35 7 48 -19 48 -12 0 -29 15 -44 38 -35 57 -52 67 -82 53 -14 -6 -42 -11 -63
-11 -20 0 -46 -6 -56 -14 -18 -13 -17 -15 8 -61 23 -40 26 -56 21 -95 -6 -45
-4 -49 25 -71 37 -27 40 -42 6 -33 -19 5 -33 -1 -60 -25 -23 -20 -46 -31 -66
-31 -21 0 -42 -12 -73 -40 -51 -47 -82 -51 -116 -15 -29 30 -51 32 -76 4 -18
-20 -18 -21 10 -70 27 -48 27 -51 11 -75 -12 -19 -22 -24 -38 -20 -12 3 -34 6
-49 6 -26 0 -28 3 -28 43 0 24 -7 52 -15 63 -8 10 -15 27 -15 36 0 19 -29 38
-56 38 -29 0 -125 70 -122 88 3 15 22 17 188 13 201 -4 283 8 342 51 28 20 30
24 25 72 -4 47 -9 55 -63 104 -31 29 -81 64 -109 78 -45 22 -56 23 -79 13 -23
-11 -31 -10 -49 1 -15 10 -56 15 -129 17 -59 1 -116 7 -127 12 -11 6 -32 11
-48 11 -16 0 -45 9 -66 20 -20 11 -52 20 -70 20 -18 0 -42 7 -53 15 -10 8 -38
15 -61 15 -30 0 -43 4 -43 14 0 7 -7 19 -15 26 -12 10 -31 9 -95 -8 -44 -11
-80 -16 -80 -12 0 4 -14 13 -30 20 -28 12 -33 11 -58 -13 -15 -13 -41 -28 -58
-31 -17 -4 -41 -18 -53 -31 -12 -15 -32 -25 -47 -25 -45 0 -64 -17 -64 -59 l0
-38 -44 10 c-37 8 -49 7 -70 -7 -14 -9 -26 -25 -26 -35 0 -14 -5 -18 -18 -14
-20 5 -139 -32 -160 -50 -8 -6 -11 -20 -8 -33 8 -29 -22 -92 -46 -100 -11 -3
-31 -31 -47 -62 -15 -31 -43 -79 -63 -107 -22 -31 -37 -66 -41 -94 -3 -26 -15
-54 -30 -70 -13 -14 -27 -33 -30 -42 -3 -9 -18 -20 -34 -23 -15 -4 -36 -15
-45 -23 -10 -9 -26 -13 -39 -10 -37 10 -62 -10 -55 -44 4 -21 -2 -41 -22 -74
-28 -46 -42 -56 -42 -31 0 8 -10 22 -22 31 -22 15 -24 14 -60 -27 -31 -35 -38
-51 -38 -85 0 -39 -2 -43 -25 -43 -28 0 -40 -18 -49 -77 -5 -35 -2 -46 18 -70
50 -60 58 -89 51 -177 l-7 -81 41 -40 c46 -44 50 -55 22 -55 -35 0 -51 -12
-51 -37 0 -22 3 -24 43 -21 36 3 46 -1 65 -24 24 -28 65 -37 77 -18 3 6 18 10
32 10 28 0 93 58 93 83 0 8 6 20 14 26 21 18 48 -13 37 -42 -7 -17 -3 -33 15
-62 13 -22 24 -52 24 -67 0 -23 -4 -28 -25 -28 -14 0 -33 -8 -43 -17 -9 -10
-29 -23 -42 -29 -14 -6 -34 -28 -45 -47 -19 -36 -19 -36 5 -111 13 -42 29 -76
35 -76 8 0 8 -26 0 -97 -12 -95 -12 -96 -54 -132 -22 -20 -41 -43 -41 -51 0
-9 -14 -24 -31 -34 -18 -11 -39 -36 -50 -61 -10 -24 -26 -45 -34 -49 -8 -3
-15 -12 -15 -20 0 -32 -29 -3 -33 32 -4 37 -4 37 -5 -6 l-2 -43 -30 22 c-39
30 -51 16 -17 -19 15 -16 27 -35 27 -44 0 -9 9 -20 20 -23 26 -8 26 -45 -1
-73 -11 -12 -26 -37 -34 -55 -12 -28 -20 -33 -67 -42 l-53 -11 3 -46 c3 -43 1
-48 -27 -63 -27 -13 -31 -21 -31 -54 0 -30 -5 -42 -25 -55 -14 -9 -34 -34 -45
-57 -22 -41 -51 -59 -99 -59 -26 0 -61 -26 -61 -45 0 -4 -18 -25 -40 -45 -29
-27 -41 -47 -46 -79 -6 -40 -9 -42 -33 -37 -62 15 -109 18 -115 7 -4 -6 -22
-11 -41 -11 -50 0 -64 -8 -87 -53 l-20 -40 -16 26 c-9 15 -22 27 -29 27 -17 0
-16 -12 2 -36 16 -22 18 -34 7 -51 -6 -10 -20 -9 -62 2 -47 13 -60 12 -98 0
-72 -25 -99 -42 -111 -74 -19 -44 -11 -65 25 -67 32 -2 84 -30 84 -45 0 -4 13
-23 28 -41 16 -18 32 -46 36 -63 11 -43 24 -57 46 -45 12 6 24 4 38 -6 18 -12
20 -19 11 -35 -6 -11 -8 -27 -5 -35 3 -8 -3 -29 -14 -47 -24 -38 -26 -76 -5
-82 8 -3 22 -7 31 -10 13 -4 9 -10 -17 -28 -19 -13 -40 -36 -48 -52 -20 -42
-29 -47 -88 -40 -36 3 -65 0 -93 -11 -50 -20 -171 -16 -178 6 -7 21 -61 72
-71 68 -6 -2 -20 -19 -33 -38 -13 -19 -43 -45 -66 -58 -34 -19 -42 -29 -42
-51 0 -15 3 -31 7 -35 4 -4 13 -26 19 -49 24 -83 41 -118 77 -155 39 -40 48
-80 23 -101 -8 -7 -16 -33 -19 -59 -2 -26 -21 -85 -42 -132 -50 -114 -62 -157
-48 -171 6 -6 32 -14 58 -17 49 -5 65 -24 65 -76 0 -49 20 -60 121 -62 73 -2
98 1 111 13 16 15 20 14 42 -10 16 -17 36 -27 53 -27 17 0 33 -8 41 -20 7 -11
23 -20 37 -20 18 0 28 -9 41 -36 9 -20 22 -37 28 -39 6 -2 25 -7 41 -10 19 -5
24 -9 15 -13 -39 -13 -50 -34 -50 -100 0 -60 -2 -66 -40 -109 -25 -29 -45 -64
-55 -101 -26 -95 -106 -290 -126 -308 -11 -10 -19 -30 -19 -49 0 -24 -5 -34
-20 -38 -22 -6 -60 -84 -60 -125 0 -14 -11 -38 -25 -52 -19 -19 -31 -50 -42
-107 l-17 -80 28 -48 c50 -84 31 -185 -36 -200 -16 -4 -28 -13 -28 -21 0 -16
10 -17 42 -5 16 6 29 5 42 -5 17 -12 18 -22 12 -81 -8 -82 -32 -167 -57 -209
-25 -42 -24 -60 6 -96 14 -16 30 -50 37 -75 10 -42 15 -47 73 -73 58 -26 62
-30 69 -68 5 -32 15 -48 51 -78 37 -30 45 -42 45 -70 0 -51 19 -82 72 -114 27
-17 58 -46 69 -65 15 -26 32 -38 62 -46 31 -8 57 -27 98 -71 51 -55 60 -61
105 -65 27 -3 122 2 212 11 90 9 167 14 173 10 20 -12 80 7 108 35 27 26 37
29 135 36 157 10 206 -9 206 -81 0 -69 20 -77 174 -68 137 7 138 7 110 -48
-11 -22 -14 -43 -9 -74 5 -35 2 -49 -15 -72 -21 -28 -21 -31 -6 -61 16 -30 16
-33 -8 -74 -14 -24 -39 -53 -56 -65 -50 -37 -41 -58 66 -157 65 -60 117 -120
161 -184 35 -53 80 -118 99 -145 44 -62 43 -93 -1 -148 -19 -24 -42 -57 -51
-75 -17 -31 -16 -32 19 -95 19 -34 39 -86 44 -114 9 -47 8 -53 -24 -99 -18
-27 -33 -59 -33 -70 0 -11 -11 -44 -25 -73 -14 -30 -25 -67 -25 -83 0 -15 -7
-53 -15 -84 -13 -50 -13 -61 1 -98 29 -81 36 -111 31 -144 -5 -27 1 -41 29
-78 19 -25 34 -50 34 -55 0 -6 25 -37 55 -70 30 -33 55 -65 56 -72 0 -7 2 -45
2 -84 2 -63 7 -82 45 -157 41 -80 43 -87 36 -145 -5 -52 -3 -66 17 -101 12
-22 31 -43 41 -47 14 -4 18 -16 18 -51 0 -30 8 -60 24 -87 20 -35 25 -64 34
-187 6 -80 8 -156 5 -168 -8 -32 41 -81 81 -81 18 0 40 -10 57 -26 l26 -25 31
30 c22 22 40 31 64 31 18 0 53 9 77 20 31 15 65 20 121 20 96 0 124 10 170 60
32 34 47 42 110 55 41 9 82 23 93 32 11 10 32 16 53 15 26 -2 34 1 34 14 0 10
-7 25 -14 33 -13 15 -9 24 40 81 50 59 53 65 34 72 -11 4 -20 14 -20 22 0 23
74 96 98 96 37 0 56 74 31 121 -8 16 -7 25 4 37 28 33 47 82 47 124 0 49 6 60
37 76 12 7 43 48 70 92 28 47 55 80 65 80 9 0 21 13 27 30 11 32 9 35 -34 42
-18 3 -20 11 -18 62 3 93 27 158 73 200 22 20 48 36 58 36 23 0 41 20 77 87
15 29 52 77 81 107 58 59 81 117 71 178 -3 18 0 52 6 74 8 33 7 55 -8 110 -10
38 -20 92 -24 119 -5 45 -9 50 -33 53 -26 3 -28 6 -28 53 0 40 -5 55 -24 74
-23 22 -25 34 -27 122 -2 54 1 122 6 152 7 45 13 56 38 70 16 9 43 27 58 40
36 29 59 22 59 -19 0 -21 5 -30 16 -30 13 0 15 7 9 39 -4 24 -2 42 4 46 6 3
11 15 11 25 0 25 61 128 114 193 23 29 115 124 203 212 l161 160 65 135 c79
166 134 309 143 377 6 47 4 54 -19 77 -33 33 -62 33 -152 1 -47 -16 -92 -25
-135 -25 -54 0 -72 -5 -104 -26 -30 -21 -55 -28 -107 -32 -84 -6 -112 1 -128
32 -12 21 -11 32 4 74 17 47 17 52 2 75 -9 14 -41 47 -72 73 -30 26 -55 56
-55 67 0 27 -18 57 -35 57 -22 0 -18 31 10 72 28 42 30 48 13 48 -7 0 -24 -17
-37 -37 -22 -34 -25 -36 -32 -18 -4 11 -8 30 -8 42 -1 13 -17 41 -37 63 -33
36 -36 44 -30 81 6 36 3 43 -24 67 -23 22 -33 44 -44 94 -13 60 -39 118 -55
118 -4 0 -21 13 -39 29 -21 20 -32 39 -32 58 0 15 -10 48 -22 73 -12 25 -22
60 -22 77 -1 24 -29 72 -112 190 -61 87 -115 169 -119 183 -8 24 -7 24 28 -7
65 -57 107 -52 107 13 0 19 4 34 9 34 15 0 23 -39 17 -75 -8 -38 17 -74 82
-119 22 -15 43 -38 46 -51 3 -13 23 -37 45 -54 37 -29 49 -52 102 -189 5 -12
20 -27 34 -32 14 -5 25 -17 25 -26 0 -10 18 -34 39 -54 22 -21 48 -55 59 -76
26 -52 68 -93 115 -114 22 -10 34 -21 28 -24 -6 -4 -11 -16 -11 -27 0 -11 -7
-34 -16 -50 -19 -37 -9 -52 15 -23 9 11 28 23 41 27 21 5 30 -2 59 -40 32 -43
33 -49 28 -110 -5 -61 -3 -65 29 -104 19 -23 34 -47 34 -54 0 -7 8 -23 18 -35
l18 -22 133 17 c221 28 362 73 426 135 17 16 58 55 92 86 34 31 65 65 69 76 5
15 14 18 51 16 42 -3 47 -1 53 22 4 14 29 61 55 105 68 114 95 175 95 216 0
23 7 42 20 54 27 24 43 80 36 120 -5 23 -1 45 9 66 9 17 19 54 22 83 4 43 2
54 -16 70 -12 11 -21 31 -21 48 0 37 -49 89 -76 82 -12 -3 -36 7 -61 25 -24
18 -49 28 -58 25 -11 -5 -15 1 -15 25 0 18 -6 34 -14 37 -27 10 -81 -12 -93
-38 -11 -23 -21 -26 -85 -33 -82 -8 -94 0 -105 68 -4 29 -14 44 -39 60 -18 12
-36 35 -41 51 -6 20 -17 32 -33 36 -19 5 -25 13 -26 36 -2 49 -3 53 -23 73
-23 23 -91 128 -91 140 0 5 18 12 40 16 23 4 53 17 68 29 37 31 64 39 74 24 4
-7 8 -52 8 -100 0 -72 5 -99 27 -153 26 -63 34 -70 76 -67 9 1 17 -4 17 -11 0
-7 9 -23 21 -36 19 -21 22 -21 45 -6 17 11 35 13 64 9 49 -8 70 7 70 50 0 52
15 64 34 28 9 -17 16 -40 16 -51 0 -11 10 -32 23 -47 20 -23 28 -26 59 -20 45
8 107 55 108 81 0 13 13 28 35 39 19 11 52 39 72 64 30 37 40 43 63 38 17 -3
41 2 64 15 20 10 49 19 66 19 32 0 37 -10 42 -80 4 -44 53 -80 109 -80 38 0
39 -1 39 -34 0 -40 12 -51 63 -60 l38 -7 -36 -40 c-29 -33 -34 -43 -24 -55 6
-8 17 -14 24 -14 8 0 24 -17 36 -37 29 -48 36 -53 81 -53 32 0 40 5 54 32 14
28 17 29 26 14 5 -9 7 -25 3 -34 -11 -29 -28 -204 -26 -277 1 -52 6 -77 21
-97 11 -15 20 -38 20 -51 0 -14 7 -30 15 -37 19 -16 55 -113 55 -150 0 -42 9
-59 41 -76 18 -9 29 -22 29 -36 0 -19 14 -53 58 -146 9 -19 26 -45 38 -60 13
-14 30 -57 40 -95 9 -37 27 -81 40 -96 12 -15 34 -57 48 -93 36 -97 52 -118
91 -118 28 0 65 24 65 43 0 3 11 17 25 31 21 21 24 30 18 74 -5 46 -4 50 18
57 13 4 34 16 45 27 19 16 20 24 11 47 -8 21 -6 55 7 134 13 81 15 114 7 145
-12 42 2 99 34 145 8 12 15 37 15 55 0 39 25 146 42 179 6 12 8 39 4 62 -6 37
-3 43 34 77 39 36 40 39 40 101 0 57 3 67 27 89 23 22 28 34 28 77 0 53 31
134 50 130 6 -1 25 -8 43 -15 31 -12 35 -11 52 12 11 14 20 32 20 41 0 9 7 33
15 53 13 29 20 36 44 36 25 0 31 -7 50 -50 12 -27 35 -60 51 -72 20 -14 32
-34 36 -57 10 -63 14 -70 90 -167 41 -53 86 -113 99 -135 23 -35 30 -39 65
-39 31 0 43 -5 56 -26 14 -21 23 -25 48 -20 46 8 128 -39 136 -79 4 -16 13
-41 20 -55 9 -16 14 -59 14 -115 1 -74 5 -98 24 -134 18 -35 23 -61 24 -120 0
-74 1 -76 42 -126 24 -27 61 -78 84 -111 34 -51 47 -63 76 -68 37 -7 83 0 104
17 19 15 14 64 -9 85 -29 28 -71 155 -78 242 -6 69 -8 76 -37 95 l-31 21 27
31 c15 17 29 36 32 43 7 21 49 5 87 -32 18 -18 48 -37 65 -43 27 -9 31 -14 28
-41 -2 -20 4 -36 17 -48 10 -9 29 -45 42 -79 23 -63 44 -97 62 -97 5 0 27 20
49 45 22 25 43 45 48 45 4 0 11 -11 14 -25 11 -45 27 -17 20 36 -6 45 -4 53
35 112 88 136 95 327 16 482 -19 39 -42 96 -50 128 -21 76 -60 121 -106 119
-34 -1 -34 -1 -36 47 -2 27 -7 60 -12 74 -9 24 -16 26 -73 29 -62 3 -62 3 -69
36 -9 46 7 180 26 208 22 33 71 33 87 0 6 -14 23 -30 38 -36 15 -6 40 -25 56
-41 15 -16 32 -29 38 -29 5 0 34 25 64 56 42 43 53 61 49 79 -6 33 83 110 127
110 28 0 31 3 42 54 9 38 22 62 43 82 17 15 31 35 31 43 0 9 16 33 35 55 20
22 35 49 35 64 0 19 7 26 28 32 46 11 62 33 62 85 0 28 9 68 22 96 17 37 23
72 25 144 2 52 6 124 9 160 6 71 0 85 -43 92 l-22 3 19 44 c27 58 25 103 -3
138 -19 22 -23 37 -19 71 5 49 -7 68 -50 77 -22 5 -27 10 -19 18 24 24 -3 83
-33 71 -9 -3 -15 6 -20 26 -4 20 -13 34 -26 37 -14 4 -20 14 -20 35 0 16 -11
44 -25 62 -31 40 -31 42 -1 50 14 3 42 27 63 54 20 26 48 56 62 68 37 32 23
54 -36 54 -37 0 -53 5 -66 21 -14 15 -25 19 -46 14 -21 -4 -30 -2 -34 9 -5 12
-20 16 -55 16 -84 0 -111 49 -45 80 34 16 73 63 99 120 9 19 18 37 21 40 9 10
23 -26 23 -61 0 -43 10 -49 80 -49 47 0 49 -2 87 -52 21 -29 41 -61 45 -70 6
-14 19 -18 56 -18 l48 0 17 -52 c11 -32 16 -75 15 -108 -3 -54 -2 -55 32 -72
l34 -18 34 33 c47 46 81 123 88 206 6 63 5 71 -12 78 -24 8 -34 22 -34 48 0
11 -13 32 -30 47 -16 14 -30 35 -30 46 0 13 -19 30 -57 53 -102 61 -128 100
-78 119 14 5 28 17 31 25 4 8 12 15 20 15 8 0 14 7 14 16 0 10 -6 14 -14 11
-18 -7 -36 12 -36 36 0 11 12 51 28 90 22 58 35 77 75 106 36 27 52 48 68 90
11 30 30 68 42 85 16 23 23 49 26 103 3 78 11 86 47 52 14 -13 28 -18 35 -13
9 5 3 16 -22 36 l-34 29 3 92 c4 169 4 201 -6 309 -7 87 -14 114 -36 150 -14
23 -30 50 -36 58 -32 53 -38 82 -33 154 11 139 -8 177 -88 186 -49 5 -53 7
-61 36 -4 17 -15 37 -23 44 -27 22 -143 46 -244 49 -32 1 -33 2 -27 32 3 17
21 57 40 88 35 57 64 146 52 158 -4 4 15 28 41 55 41 41 53 48 88 48 58 1 114
16 147 40 l29 21 44 -25 43 -26 42 35 41 35 47 -24 c26 -13 68 -26 94 -30 41
-6 48 -4 62 16 31 43 15 98 -27 98 -14 0 -17 5 -12 17 14 38 18 140 5 162 -16
32 -1 24 52 -25 33 -31 47 -52 51 -80 5 -30 17 -49 53 -80 l47 -41 -7 -69 c-4
-38 -16 -86 -27 -107 -42 -83 -10 -389 56 -535 38 -83 190 -214 230 -198 22 8
55 91 54 134 0 20 -6 53 -13 72 -12 32 -11 40 10 82 50 100 37 314 -28 441
-17 34 -36 78 -44 99 l-13 38 45 0 c59 0 55 24 -4 28 -41 3 -42 4 -27 25 8 12
15 32 15 45 0 20 4 23 23 18 12 -3 56 -9 99 -13 73 -6 77 -5 102 20 14 14 26
35 26 46 0 11 20 43 45 72 25 29 45 62 45 74 0 30 23 58 82 101 68 48 118 95
118 110 0 24 -70 101 -114 125 -51 27 -55 34 -27 49 14 7 27 7 44 -1 19 -9 31
-7 55 5 58 30 79 21 91 -38 8 -38 59 -69 143 -86 54 -10 62 -9 92 9 43 27 86
89 86 125 0 44 -21 107 -50 151 -23 36 -30 40 -72 43 -41 3 -46 6 -51 30 -5
22 -14 30 -47 39 -38 10 -44 9 -71 -14 -29 -24 -30 -25 -49 -8 -11 10 -20 27
-20 38 0 40 -186 189 -247 197 -32 4 -38 8 -35 27 3 24 -6 28 -83 39 -51 7
-85 27 -85 50 0 23 -36 34 -107 34 -55 0 -80 6 -122 27 l-54 26 -53 -59 c-29
-32 -53 -62 -54 -66 0 -14 -91 -8 -122 8 -23 12 -49 15 -102 12 -69 -5 -73 -4
-162 44 -89 47 -93 48 -178 48 -85 0 -89 -1 -116 -30 -25 -27 -28 -28 -33 -10
-6 25 -60 57 -109 65 -41 7 -47 20 -23 51 23 30 18 53 -12 61 -16 3 -48 15
-72 26 -38 17 -50 18 -83 8 -22 -7 -48 -21 -58 -31 -19 -19 -20 -19 -30 0 -20
37 -43 41 -135 25 -56 -10 -98 -23 -123 -40 -20 -14 -49 -25 -65 -25 -16 0
-44 -12 -63 -26 -27 -21 -41 -25 -67 -20 -41 8 -104 -16 -109 -40 -2 -14 -5
-12 -15 7 -6 13 -14 32 -17 42 -3 10 -38 33 -80 52 -77 35 -81 40 -100 127 -7
31 -61 68 -101 68 -21 0 -44 -18 -103 -80 -41 -44 -85 -83 -98 -86 -17 -4 -39
5 -82 35 -77 54 -112 59 -204 30 -56 -17 -91 -22 -154 -20 l-80 3 -59 -54
c-63 -58 -198 -142 -203 -127 -7 19 8 39 29 39 12 0 36 16 53 35 18 19 47 40
64 46 28 9 32 16 32 45 0 26 11 46 49 88 81 89 84 105 30 145 -17 13 -37 38
-45 57 -17 42 -44 44 -90 9 -18 -14 -37 -25 -43 -25 -6 0 -26 14 -46 31 -24
22 -35 40 -35 59 0 30 -22 60 -45 60 -7 0 -20 2 -28 5 -8 4 -38 -18 -75 -55z
m102 14 c10 -4 16 -18 16 -39 0 -28 8 -40 44 -69 49 -40 79 -45 116 -16 34 26
44 25 66 -7 10 -16 28 -36 41 -46 13 -10 23 -23 23 -28 0 -5 -20 -31 -44 -57
-49 -54 -66 -82 -66 -112 0 -11 -8 -23 -17 -27 -10 -3 -37 -24 -60 -45 -24
-21 -49 -38 -57 -38 -26 0 -46 -30 -46 -71 0 -51 17 -57 67 -26 21 13 60 37
87 52 26 15 73 50 104 77 l55 51 74 -7 c60 -5 82 -2 125 15 90 36 132 31 215
-27 44 -30 75 -58 78 -71 3 -13 7 -35 11 -49 3 -15 23 -45 45 -68 37 -37 40
-44 35 -79 -4 -22 -15 -56 -26 -78 -11 -21 -20 -48 -20 -59 0 -11 -9 -38 -20
-60 -24 -47 -25 -62 -4 -117 20 -52 14 -70 -31 -88 -44 -19 -83 -19 -129 0
-33 14 -52 14 -108 -1 -9 -3 -18 -17 -20 -31 -3 -26 -9 -32 -60 -52 -24 -9
-28 -16 -28 -51 0 -51 36 -86 153 -150 46 -25 54 -42 33 -72 -29 -40 -17 -94
35 -168 10 -14 23 -52 29 -85 7 -33 23 -77 37 -97 20 -30 27 -57 35 -145 l11
-109 -32 -84 c-44 -114 -49 -168 -21 -255 30 -98 37 -202 16 -242 -17 -34 -57
-54 -64 -33 -18 54 -80 63 -165 25 -55 -24 -56 -24 -80 -5 -40 32 -62 24 -105
-36 -16 -23 -32 -33 -62 -38 -36 -6 -45 -13 -80 -68 -22 -33 -40 -71 -40 -82
0 -12 13 -33 29 -47 27 -23 29 -30 24 -70 -3 -24 -13 -54 -21 -67 -10 -16 -13
-37 -9 -72 3 -27 1 -62 -5 -78 -15 -39 4 -88 42 -107 15 -8 30 -25 34 -37 3
-13 24 -36 46 -51 49 -35 58 -66 36 -126 -9 -25 -16 -62 -16 -81 0 -33 8 -50
52 -111 14 -21 16 -37 9 -113 -7 -69 -13 -93 -27 -103 -16 -11 -22 -10 -46 14
-22 21 -31 24 -40 15 -17 -17 -42 -15 -68 6 -21 17 -22 20 -7 43 42 67 25 125
-65 208 l-57 53 -45 -27 c-55 -32 -90 -28 -131 15 -25 26 -29 40 -35 112 -4
46 -14 97 -23 115 -9 18 -17 38 -17 46 0 7 -11 24 -24 36 -14 13 -30 36 -37
52 -6 17 -25 37 -40 45 -16 8 -36 28 -44 44 -13 24 -22 30 -49 30 -45 0 -58
17 -46 61 18 62 12 98 -19 130 -23 22 -39 29 -69 29 -23 0 -45 -6 -52 -15 -18
-22 -39 -18 -45 8 -8 30 10 77 30 77 23 0 55 60 55 103 0 28 7 44 26 62 15 14
30 25 33 25 4 0 15 14 25 30 17 30 17 31 -3 64 -12 18 -21 42 -21 52 0 11 -9
33 -20 49 -11 17 -20 39 -20 50 0 11 -13 32 -29 46 -28 24 -28 27 -19 83 10
67 -1 115 -38 159 -13 16 -24 35 -24 42 0 7 -15 31 -32 54 -18 22 -41 51 -51
66 -10 14 -37 35 -60 46 -23 12 -44 23 -46 25 -2 2 -5 48 -7 103 -2 103 -15
148 -46 163 -10 4 -25 12 -34 16 -9 4 -27 38 -39 74 -21 63 -58 128 -73 128
-11 0 -72 60 -72 71 0 6 16 25 35 42 33 31 35 35 29 80 -10 71 -34 86 -121 74
-96 -12 -123 -1 -123 53 0 30 -6 45 -25 62 -24 20 -25 26 -19 80 5 45 3 63
-10 83 -15 22 -15 26 -2 31 33 13 115 -27 166 -79 44 -47 51 -51 69 -39 12 6
30 12 41 12 32 0 37 30 9 51 -21 15 -24 26 -24 78 -1 56 -3 62 -43 105 -23 25
-42 53 -42 61 0 26 29 29 55 5 19 -18 32 -22 59 -17 27 4 38 1 57 -19 33 -35
112 -35 134 0 9 14 15 37 13 53 -3 27 -5 28 -63 29 -62 2 -164 34 -184 58 -9
10 -1 25 35 65 44 49 48 51 98 51 58 0 68 10 82 85 5 29 11 36 28 34 41 -3 54
1 92 32 21 17 72 51 114 77 69 44 81 47 160 53 72 5 92 11 134 38 62 39 79 39
93 1 7 -18 19 -30 29 -30 21 0 120 73 134 100 11 21 27 25 54 14z m1087 -310
c9 -8 19 -32 23 -53 8 -55 37 -85 111 -116 45 -20 65 -33 65 -46 0 -10 4 -20
9 -23 5 -4 12 -24 16 -46 6 -36 9 -39 27 -29 11 6 25 24 31 40 12 31 55 53 78
38 24 -15 45 -10 84 21 21 17 48 30 60 30 13 0 48 13 78 29 36 19 79 32 122
36 63 7 68 6 94 -19 30 -28 71 -35 71 -11 0 35 76 46 135 18 35 -17 35 -18 29
-64 l-6 -48 43 -11 c73 -18 99 -32 99 -50 0 -9 9 -29 21 -44 27 -34 21 -58
-17 -68 -34 -9 -48 -22 -79 -76 -13 -23 -32 -39 -55 -46 -51 -16 -63 -49 -64
-181 -1 -79 3 -116 12 -128 8 -9 37 -19 68 -23 39 -4 59 -12 69 -27 19 -27 19
-86 0 -111 -8 -11 -15 -35 -15 -53 0 -67 -75 -107 -116 -62 -15 17 -26 19 -65
14 -41 -6 -49 -4 -58 14 -6 11 -11 29 -11 41 0 30 -39 44 -96 35 -38 -5 -55
-15 -83 -45 -20 -21 -47 -40 -61 -42 -20 -2 -34 -20 -71 -93 -39 -74 -46 -97
-42 -128 5 -34 2 -41 -39 -82 l-45 -45 -135 6 c-152 8 -188 3 -188 -25 0 -57
-36 -68 -70 -21 -22 31 -50 39 -68 18 -9 -12 -14 -29 -43 -141 -9 -33 -18 -42
-55 -59 -55 -24 -109 -34 -117 -20 -4 5 -11 49 -16 97 -8 67 -17 97 -36 125
-14 20 -30 63 -36 95 -6 37 -22 76 -40 102 -41 59 -46 94 -19 131 32 43 20 64
-61 114 -108 66 -131 87 -127 116 2 18 12 27 38 36 24 8 39 21 49 43 17 38 43
47 89 27 19 -7 50 -14 70 -14 38 0 110 18 130 33 17 13 15 69 -4 117 -15 37
-15 43 4 92 11 29 25 69 32 88 7 19 18 51 26 70 18 48 18 106 -2 122 -59 48
-64 56 -64 111 0 53 1 54 78 136 66 70 80 81 102 75 14 -3 32 -12 41 -20z
m-2085 -296 c-33 -7 -86 22 -86 47 0 10 15 7 58 -13 58 -27 58 -27 28 -34z
m3610 -38 c91 -50 94 -51 157 -44 49 5 71 3 95 -10 18 -9 55 -16 91 -16 51 0
62 3 79 25 11 13 34 41 51 61 l32 36 49 -21 c34 -15 70 -21 119 -21 68 0 71
-1 86 -30 19 -36 36 -46 98 -55 38 -6 50 -13 57 -31 5 -13 20 -26 35 -29 14
-3 36 -7 50 -10 13 -3 47 -24 74 -48 27 -23 64 -51 83 -62 24 -15 34 -28 36
-52 2 -22 15 -42 38 -62 19 -17 39 -31 44 -31 4 0 22 12 39 26 34 28 71 26 71
-5 0 -28 22 -41 71 -41 47 0 48 0 74 -53 40 -83 43 -120 11 -162 -42 -55 -70
-65 -134 -49 -73 19 -79 23 -105 74 -29 59 -59 74 -106 54 -22 -9 -49 -13 -71
-9 -27 5 -44 1 -70 -17 -52 -35 -49 -51 14 -82 52 -26 116 -87 116 -111 0 -6
-36 -38 -81 -71 -76 -56 -109 -94 -109 -128 0 -8 -18 -35 -40 -61 -22 -25 -44
-63 -50 -85 -10 -38 -12 -39 -58 -42 -26 -2 -73 1 -104 6 -70 11 -88 5 -88
-31 0 -15 -7 -37 -15 -47 -26 -34 -18 -87 28 -182 50 -101 69 -185 70 -306 0
-71 -4 -91 -27 -141 l-28 -59 17 -55 c16 -50 16 -60 3 -102 -8 -26 -21 -47
-30 -49 -23 -4 -138 96 -170 149 -39 63 -67 182 -81 343 -10 128 -10 140 7
170 22 38 47 193 35 223 -4 12 -26 34 -48 47 -34 22 -41 32 -46 71 -6 38 -16
53 -67 100 -92 85 -150 88 -108 4 21 -41 22 -47 10 -126 -6 -45 -9 -87 -5 -92
3 -6 17 -11 31 -11 19 0 25 -5 22 -17 -5 -26 -71 -24 -131 4 -62 29 -65 29
-103 -8 l-32 -31 -40 21 c-44 22 -82 27 -82 11 0 -19 -56 -37 -128 -42 -73 -5
-74 -6 -127 -58 -48 -47 -53 -57 -53 -95 1 -23 -6 -55 -14 -71 -8 -16 -29 -55
-47 -88 -31 -57 -38 -99 -23 -124 5 -8 34 -14 75 -15 36 -2 69 -6 73 -10 4 -4
29 -10 55 -13 60 -8 79 -21 93 -65 10 -32 14 -34 66 -39 75 -7 83 -24 75 -152
-5 -80 -4 -101 9 -120 9 -12 16 -31 16 -41 0 -10 12 -30 27 -45 33 -33 53 -98
53 -176 0 -34 5 -78 11 -100 7 -27 8 -57 0 -100 -5 -33 -15 -95 -22 -136 -7
-41 -12 -101 -11 -132 3 -55 -4 -75 -47 -148 -5 -8 -17 -34 -27 -57 -18 -46
-41 -55 -65 -27 -7 9 -29 23 -48 32 -24 12 -44 33 -61 66 -28 52 -53 76 -81
76 -20 0 -55 39 -84 94 -20 37 -20 38 -1 51 10 8 23 16 29 18 7 2 10 45 8 114
-2 100 0 117 24 172 14 34 22 67 18 74 -4 6 -8 52 -9 102 -2 119 -26 194 -66
202 -19 4 -38 20 -56 47 l-28 41 -93 8 c-87 8 -96 7 -122 -12 -42 -31 -56 -27
-63 19 -4 25 -19 54 -40 78 -18 20 -41 52 -50 70 -9 18 -40 48 -69 66 -112 71
-136 150 -117 371 10 123 10 145 -4 184 -27 75 -20 108 37 169 25 26 32 42 32
76 1 52 62 185 85 186 9 0 38 22 65 50 72 74 138 80 151 15 9 -47 26 -59 78
-52 35 5 47 3 61 -13 33 -36 130 -18 155 29 5 11 10 35 10 53 0 19 7 43 15 54
19 25 19 97 0 134 -16 30 -25 35 -93 45 -59 9 -66 28 -58 139 8 102 21 131 65
139 21 4 35 16 47 39 24 48 44 68 68 68 12 0 32 7 44 16 18 12 22 25 22 66 0
75 15 88 108 88 71 0 79 -3 168 -50z m-3474 30 c26 0 28 -2 18 -20 -16 -29
-61 -26 -91 6 l-24 27 34 -7 c18 -3 47 -6 63 -6z m-742 -30 c13 -11 33 -20 46
-20 14 0 31 -12 44 -30 15 -22 30 -30 51 -30 41 0 38 -24 -11 -94 -45 -64 -49
-86 -19 -104 11 -7 27 -29 35 -48 8 -19 21 -37 29 -41 10 -3 15 -19 15 -44 0
-23 6 -41 15 -46 8 -5 27 -33 42 -63 17 -34 36 -56 48 -59 11 -2 31 -12 44
-22 33 -26 60 -23 100 11 19 16 37 27 41 25 4 -2 10 -35 13 -72 6 -60 10 -71
37 -93 101 -83 102 -84 130 -171 26 -78 30 -84 59 -90 18 -4 35 -9 38 -13 12
-12 23 -122 17 -174 -7 -62 1 -75 64 -105 26 -12 52 -33 61 -50 9 -17 28 -45
44 -62 15 -18 27 -37 27 -42 0 -5 12 -25 26 -44 41 -54 45 -73 33 -152 -11
-71 -11 -71 15 -92 14 -11 26 -28 26 -37 0 -8 9 -26 19 -40 11 -13 24 -42 30
-65 6 -23 16 -45 21 -48 21 -13 8 -41 -35 -81 -39 -35 -45 -46 -45 -80 0 -45
-5 -53 -42 -77 -36 -23 -54 -87 -39 -138 14 -48 33 -54 70 -24 36 31 74 32
102 4 18 -18 20 -28 14 -68 -4 -25 -8 -61 -8 -80 -2 -36 3 -39 75 -55 15 -3
30 -15 33 -26 4 -11 18 -26 32 -34 61 -31 143 -189 143 -272 0 -52 -1 -54 -36
-69 -36 -15 -37 -16 -31 -60 7 -49 -8 -75 -44 -75 -41 0 -56 -18 -63 -72 -5
-38 -15 -61 -34 -81 -22 -23 -27 -38 -27 -80 0 -66 -19 -72 -79 -21 -31 26
-46 47 -51 72 -3 19 -17 45 -30 58 -21 21 -34 24 -92 24 -49 0 -79 6 -105 20
-28 15 -48 18 -86 13 -41 -5 -55 -1 -90 21 -23 14 -50 43 -61 64 -21 42 -107
126 -137 136 -11 3 -44 35 -73 70 -29 35 -70 73 -91 85 -21 12 -48 36 -59 54
-58 89 -117 157 -136 157 -27 0 -49 29 -56 76 -4 27 -13 74 -20 105 -12 56
-12 57 14 89 15 17 30 43 33 57 9 36 -13 101 -39 114 -12 6 -48 28 -79 48 -51
32 -58 40 -58 69 0 18 14 58 30 89 36 67 40 132 11 160 -16 15 -19 37 -23 153
-3 85 -11 150 -20 175 -10 25 -12 48 -7 62 5 14 2 39 -7 66 -14 40 -14 51 1
108 9 35 34 102 55 149 69 152 82 280 45 445 -7 33 -11 72 -8 87 3 16 -1 36
-11 50 -9 12 -16 34 -16 49 0 21 -6 28 -32 36 -30 8 -33 13 -30 44 2 24 11 42
33 59 l30 25 -25 38 c-28 41 -32 62 -15 73 7 4 9 21 5 43 -12 77 23 106 74 61z
m-2440 -474 c88 -23 109 -34 115 -59 11 -43 9 -160 -3 -222 -15 -74 -15 -195
-1 -266 5 -30 10 -87 10 -127 0 -40 7 -99 16 -130 8 -31 19 -73 23 -92 5 -19
14 -50 21 -68 11 -26 11 -36 1 -52 -6 -11 -12 -31 -12 -44 0 -29 -37 -96 -53
-96 -6 0 -30 7 -54 16 -39 15 -47 15 -120 -1 -103 -24 -122 -25 -160 -8 -35
16 -57 63 -49 105 2 13 20 50 40 83 46 77 48 125 7 182 -42 58 -131 80 -204
50 -33 -14 -44 -30 -71 -108 -9 -26 -28 -60 -42 -75 -61 -72 -84 -208 -57
-343 23 -119 24 -127 13 -156 -6 -16 -26 -44 -45 -62 -18 -18 -48 -63 -65
-100 -60 -127 -65 -135 -92 -164 -36 -40 -79 -39 -108 1 -19 27 -29 48 -82
170 -36 84 -51 108 -80 125 -38 22 -87 13 -118 -20 -34 -36 -74 -33 -112 7
-34 37 -41 52 -69 157 -22 80 -28 187 -13 213 19 31 63 78 75 78 13 0 259 245
296 295 12 17 33 50 46 75 13 25 49 87 80 138 31 51 57 94 57 96 0 2 18 31 41
65 42 63 69 83 128 96 35 8 85 32 133 66 14 11 32 19 39 19 7 0 32 18 55 41
43 42 57 52 134 90 44 22 180 50 210 43 8 -2 40 -10 70 -18z m2258 -48 c38
-11 75 -68 91 -138 14 -63 -12 -182 -74 -335 -44 -109 -49 -128 -52 -212 -1
-57 3 -110 12 -140 26 -90 28 -128 29 -406 l1 -279 43 -36 c24 -21 47 -52 53
-72 6 -19 12 -99 14 -178 3 -142 3 -142 -23 -162 -13 -11 -30 -20 -37 -20 -14
0 -95 -87 -95 -100 0 -5 -15 -17 -33 -27 -34 -20 -65 -22 -127 -6 -43 11 -106
-3 -245 -53 -55 -19 -122 -42 -150 -51 -27 -8 -63 -22 -80 -30 -65 -33 -133
-133 -156 -230 -23 -96 -5 -282 30 -320 9 -10 32 -40 50 -67 31 -45 33 -52 28
-110 -4 -42 -15 -79 -38 -121 -84 -154 -99 -190 -99 -231 0 -33 5 -45 27 -60
80 -57 121 -115 173 -244 31 -75 37 -237 13 -301 -29 -75 -86 -119 -153 -119
-35 0 -59 23 -111 111 -32 54 -48 69 -87 87 -32 15 -55 35 -72 63 -27 44 -55
67 -124 104 -112 60 -144 131 -90 202 14 18 34 54 45 79 17 38 19 50 9 80 -18
52 -45 66 -121 58 -92 -8 -143 -21 -186 -46 -21 -12 -73 -39 -115 -61 -70 -35
-83 -38 -135 -34 -32 3 -76 9 -98 14 -61 14 -127 -19 -186 -93 l-29 -37 0 34
c0 19 -9 52 -21 74 -18 33 -19 44 -10 76 16 54 14 97 -10 159 -26 69 -43 88
-85 96 -40 7 -43 11 -52 66 -10 58 -45 77 -111 59 -29 -8 -48 -8 -54 -2 -17
17 0 36 51 54 41 14 56 26 83 68 17 28 42 57 55 65 12 9 27 29 33 47 6 17 17
38 25 46 8 9 16 32 19 51 3 19 9 49 12 66 6 25 1 40 -24 74 -29 41 -31 48 -32
139 0 53 -5 119 -10 146 -5 28 -12 73 -16 100 -8 68 -16 76 -72 70 -80 -10
-141 49 -141 138 0 19 -5 48 -11 65 -9 25 -7 39 10 76 24 55 48 66 130 63 49
-2 63 1 74 17 18 25 14 70 -13 152 -40 118 -11 169 94 165 66 -2 118 18 142
54 17 25 16 29 -6 91 -19 54 -21 76 -16 131 4 36 13 78 21 94 19 35 19 69 1
94 -22 33 -56 180 -56 247 0 35 -7 101 -15 148 -17 95 -13 221 11 306 8 29 11
65 8 82 -6 30 18 92 36 92 5 0 53 -7 107 -15 54 -8 139 -19 188 -24 210 -22
287 -58 268 -129 -11 -43 -43 -52 -165 -47 -259 11 -259 11 -292 -21 -20 -21
-26 -36 -26 -71 0 -43 3 -48 98 -142 64 -65 105 -115 121 -149 21 -44 30 -54
62 -62 20 -6 47 -8 60 -6 13 3 31 5 41 5 9 1 45 28 80 60 82 77 187 161 202
161 6 1 29 9 51 20 22 11 48 19 59 20 20 0 104 42 151 76 17 12 40 25 52 28
12 4 38 20 59 37 21 17 81 58 134 93 145 95 257 122 385 91 71 -17 130 -5 188
39 91 70 137 81 225 54z m739 0 c20 -25 21 -67 2 -84 -17 -16 -19 -15 -29 10
-5 15 -10 36 -10 46 0 11 -8 24 -17 29 -15 9 -13 10 13 11 17 0 36 -6 41 -12z
m2472 -625 c69 -7 65 -3 95 -103 15 -49 15 -70 5 -186 -21 -222 13 -329 124
-389 36 -20 54 -39 72 -76 14 -27 30 -49 35 -49 17 0 50 -63 50 -97 0 -29 21
-63 39 -63 5 0 26 14 47 31 36 29 41 30 104 24 103 -10 110 -12 117 -46 6 -31
28 -49 61 -49 32 0 54 -78 57 -205 2 -83 -1 -117 -12 -139 -9 -16 -19 -68 -22
-116 -11 -126 -24 -136 -88 -72 -22 20 -47 42 -56 47 -10 6 -23 33 -30 60 -10
42 -17 52 -44 64 -18 8 -33 22 -33 31 0 27 -30 60 -54 60 -33 0 -45 19 -43 69
1 38 -3 46 -33 72 -43 35 -60 36 -98 4 -32 -27 -108 -35 -129 -14 -18 18 -41
4 -56 -33 -8 -18 -21 -39 -30 -47 -21 -17 -21 -40 -2 -65 21 -28 18 -65 -10
-111 -28 -45 -31 -78 -10 -115 8 -14 14 -34 15 -45 0 -26 -48 -97 -63 -92 -6
2 -17 22 -25 46 -17 52 -51 77 -81 61 -12 -6 -21 -15 -21 -21 0 -6 -16 -26
-35 -45 -32 -31 -39 -33 -80 -27 -32 4 -51 1 -69 -11 -33 -21 -48 -20 -93 4
-26 14 -57 20 -99 20 -33 0 -96 9 -139 20 -84 22 -140 16 -178 -18 -17 -15
-21 -15 -57 6 -22 12 -46 22 -55 22 -9 0 -27 7 -40 16 -19 12 -38 14 -88 9
-71 -8 -74 -6 -92 55 -7 24 -17 36 -32 38 -35 5 -47 27 -34 64 6 17 9 46 5 64
-4 20 0 40 9 55 8 13 17 55 21 92 5 67 5 69 -26 97 l-31 28 27 46 c30 51 60
76 92 76 14 0 36 16 58 43 l35 42 35 -19 35 -19 61 27 c81 35 106 34 128 -4
22 -39 38 -44 76 -22 70 40 82 126 41 288 -31 121 -31 125 0 222 33 106 49
124 140 157 88 32 108 53 124 132 17 84 25 94 52 60 19 -25 27 -28 68 -25 41
3 46 6 49 28 6 48 8 50 80 50 38 0 97 -3 131 -7z m-5741 -146 c14 -11 16 -65
3 -99 -5 -13 -21 -36 -36 -52 -32 -35 -45 -67 -39 -93 3 -11 -2 -37 -10 -58
-22 -52 -20 -97 5 -129 17 -22 27 -26 47 -21 15 4 67 8 117 11 71 3 96 9 118
25 27 20 29 20 48 4 14 -13 29 -16 59 -12 35 4 42 2 60 -23 11 -15 34 -33 51
-40 52 -22 12 -31 -147 -36 -79 -2 -153 -8 -164 -14 -14 -8 -20 -21 -20 -47 0
-48 45 -142 73 -152 33 -13 44 -30 51 -84 l7 -48 -28 7 c-40 10 -40 9 -47 54
-3 22 -10 40 -14 41 -4 0 -18 2 -31 5 -30 5 -48 -9 -56 -46 -3 -15 -15 -36
-26 -46 -12 -11 -19 -30 -19 -54 0 -24 -7 -43 -20 -55 -26 -24 -25 -34 8 -108
43 -96 30 -116 -60 -92 -43 11 -62 11 -115 0 -34 -7 -78 -23 -97 -34 -23 -15
-56 -23 -99 -25 -35 -2 -73 -8 -83 -14 -11 -6 -58 -10 -105 -11 -120 -1 -126
5 -131 132 -4 89 1 113 17 87 3 -5 15 -10 26 -10 11 0 35 -16 53 -35 27 -28
41 -35 72 -35 46 0 84 23 84 50 0 33 23 71 52 86 31 16 31 16 32 98 1 51 4 61
26 74 81 52 140 151 140 236 0 55 -24 165 -44 203 -9 18 -16 48 -16 67 0 31 5
36 45 56 32 16 47 29 51 48 3 15 12 39 20 54 8 14 14 42 14 62 0 28 7 43 33
66 32 29 64 32 95 7z m6114 -1014 c13 -12 18 -30 18 -69 0 -56 5 -64 53 -73
17 -4 34 -14 39 -24 4 -9 12 -25 16 -34 5 -10 19 -23 32 -30 28 -14 35 -26 44
-75 5 -29 14 -42 38 -54 17 -9 46 -32 63 -50 21 -22 42 -34 59 -34 32 0 33 -7
1 -36 -14 -13 -25 -27 -25 -31 0 -5 19 -40 43 -78 32 -51 52 -73 74 -80 43
-14 61 -32 82 -81 13 -28 33 -52 59 -68 47 -29 61 -60 39 -84 -28 -32 -67
-144 -67 -194 0 -35 -6 -54 -20 -68 -28 -28 -26 -75 4 -103 13 -12 49 -38 80
-57 31 -19 56 -40 56 -47 0 -7 14 -28 30 -46 17 -19 30 -44 30 -55 0 -11 12
-30 26 -41 23 -18 25 -25 18 -58 -4 -21 -9 -47 -10 -58 -3 -36 -32 -89 -63
-119 -25 -24 -33 -27 -45 -17 -11 9 -13 25 -9 61 4 34 1 62 -11 90 -9 23 -14
46 -10 51 3 5 0 17 -6 25 -10 11 -25 13 -60 8 -37 -5 -48 -3 -53 9 -3 8 -25
40 -49 71 -40 52 -46 56 -85 56 -57 0 -73 8 -73 37 0 36 -28 83 -49 83 -22 0
-36 -15 -46 -50 -4 -14 -17 -36 -30 -50 -12 -14 -25 -32 -27 -40 -2 -8 -22
-24 -44 -35 -35 -18 -39 -25 -42 -62 -3 -40 -1 -43 35 -62 24 -12 49 -17 67
-14 20 4 31 1 38 -11 6 -10 22 -16 44 -16 20 0 42 -7 50 -15 9 -8 26 -15 39
-15 39 0 37 -14 -13 -70 l-48 -53 -45 12 c-24 7 -80 18 -124 23 -44 5 -103 18
-130 29 -62 23 -63 23 -115 0 -53 -24 -79 -17 -97 27 l-14 34 -62 -6 c-36 -5
-78 -17 -102 -32 -45 -26 -66 -29 -93 -14 -24 13 -126 40 -151 40 -12 0 -34 9
-49 20 -26 19 -31 19 -131 4 -117 -16 -138 -13 -147 21 -3 13 -22 36 -42 51
-21 15 -48 39 -62 54 -14 15 -44 32 -68 39 -35 10 -46 19 -57 45 -8 19 -21 36
-29 39 -8 3 -24 23 -36 44 -20 39 -27 50 -66 113 -12 19 -24 58 -28 85 -3 28
-16 63 -27 78 -16 22 -20 38 -15 65 3 21 11 77 16 126 10 79 9 91 -7 113 -45
63 -53 80 -53 111 0 18 7 47 16 63 10 21 14 50 12 87 -3 53 -1 57 19 60 13 2
33 -4 45 -12 12 -9 29 -16 38 -16 8 0 32 -9 53 -20 44 -24 80 -26 97 -5 23 27
76 35 131 19 28 -8 92 -19 144 -23 52 -4 100 -13 107 -19 34 -28 65 -31 102
-11 29 15 48 18 84 13 47 -6 48 -5 95 45 26 28 52 51 57 51 4 0 14 -17 20 -37
31 -99 63 -107 115 -31 38 57 44 97 20 138 -20 35 -18 52 10 94 27 40 31 82
13 133 -11 30 -10 35 17 63 26 27 35 30 91 30 47 0 68 5 85 20 30 24 47 25 71
3z m-6040 -248 c47 -33 103 -55 139 -55 25 0 47 -106 52 -248 5 -112 8 -127
32 -163 23 -35 25 -46 19 -87 -8 -53 -43 -124 -76 -156 -13 -12 -37 -43 -55
-68 -25 -37 -41 -49 -75 -58 -24 -7 -51 -19 -60 -27 -24 -21 -23 -64 2 -96 11
-14 20 -28 20 -31 0 -14 -63 -96 -86 -111 -52 -34 -77 -136 -59 -248 l8 -48
-104 3 -104 3 -7 45 c-4 25 -10 59 -13 76 -5 20 -1 42 9 62 22 42 20 55 -10
91 -20 24 -34 31 -62 31 -19 0 -43 -7 -53 -16 -9 -8 -50 -20 -91 -25 -102 -13
-118 -22 -118 -60 0 -66 -76 -129 -155 -129 -19 0 -52 -9 -72 -20 -53 -28 -79
-26 -97 9 -22 42 -42 45 -96 14 -47 -26 -48 -26 -75 -9 -15 10 -33 32 -41 49
-27 62 -88 150 -148 214 -21 24 -31 47 -36 84 -6 49 -5 54 29 94 69 81 76 90
119 155 24 36 50 72 57 80 13 16 66 116 115 220 37 79 66 128 90 155 10 11 25
35 34 53 10 18 23 35 31 38 7 3 25 24 40 46 42 63 102 85 235 87 62 1 131 8
157 16 27 8 58 15 70 15 12 0 44 7 70 16 44 15 139 26 267 31 40 1 57 -4 98
-32z m2784 -49 c16 -19 49 -60 73 -90 24 -31 61 -66 82 -78 21 -12 41 -29 44
-37 8 -27 88 -108 114 -116 37 -11 100 -74 126 -126 33 -64 99 -103 171 -100
28 0 69 -6 90 -15 21 -9 66 -16 99 -16 68 -1 90 -14 101 -62 4 -17 24 -51 45
-75 40 -45 47 -73 28 -114 -9 -20 -7 -32 11 -67 23 -46 41 -166 28 -199 -4
-12 -16 -21 -26 -21 -30 0 -49 -29 -71 -107 -25 -92 -26 -93 -64 -93 -34 0
-110 -31 -121 -49 -15 -24 -23 -114 -14 -157 7 -34 19 -52 49 -76 79 -63 85
-188 14 -264 -29 -30 -38 -34 -83 -34 -41 0 -60 7 -103 36 -58 39 -66 41 -121
30 -37 -7 -68 -42 -68 -78 0 -28 -20 -42 -65 -44 -82 -5 -113 -21 -125 -62
-11 -43 -99 -142 -124 -142 -10 0 -37 20 -62 45 -29 31 -52 45 -69 45 -39 0
-62 16 -81 56 -36 75 -166 119 -229 78 -35 -23 -73 -11 -81 24 -3 15 -10 37
-16 48 -5 12 -7 36 -3 53 7 35 -15 81 -39 81 -7 0 -19 7 -26 15 -11 13 -8 15
14 15 26 0 27 1 21 53 -9 73 -11 76 -50 93 -30 12 -35 19 -35 46 0 17 -8 40
-17 50 -16 18 -16 21 1 49 16 28 16 32 2 54 -16 25 -22 27 -81 29 -25 1 -31 6
-33 29 -2 15 -11 31 -21 37 -13 7 -20 27 -25 70 -8 69 -3 79 55 116 62 39 70
101 31 244 -9 30 -47 37 -107 20 -76 -23 -85 -29 -85 -54 0 -13 -9 -34 -19
-47 -26 -31 -41 -16 -48 45 -5 41 -11 50 -60 88 -49 37 -54 45 -50 72 3 19 -5
54 -19 91 -47 116 -42 157 28 213 25 21 28 29 22 58 -11 57 13 80 88 87 49 4
67 10 81 29 15 18 36 26 93 35 53 8 89 20 125 43 41 27 54 31 72 22 80 -39
178 -52 207 -29 22 17 45 56 59 99 11 32 18 39 54 48 23 6 56 17 72 25 17 7
49 14 71 14 36 1 46 -4 70 -33z m1308 -358 c14 -6 32 -21 41 -34 23 -35 94
-42 140 -15 20 12 37 21 39 21 13 0 116 -112 117 -126 2 -37 -3 -59 -22 -85
-26 -37 -24 -66 4 -75 12 -3 30 -13 39 -21 12 -11 28 -14 49 -9 24 5 40 -1 75
-25 60 -41 72 -62 84 -149 6 -41 15 -76 20 -78 12 -4 70 -90 70 -103 0 -5 12
-22 28 -37 15 -15 34 -40 42 -56 11 -22 27 -33 63 -43 31 -9 51 -22 58 -36 5
-12 28 -33 50 -45 25 -14 46 -37 54 -57 8 -18 22 -36 32 -39 9 -4 67 -1 128 5
101 11 114 11 136 -4 13 -9 34 -17 47 -17 35 0 134 -30 153 -46 25 -23 65 -14
129 27 14 9 44 19 66 23 39 5 44 3 67 -28 35 -45 66 -52 123 -25 l46 21 47
-20 c25 -11 73 -23 106 -27 33 -4 78 -14 100 -23 40 -15 85 -52 85 -70 0 -5 7
-15 15 -22 9 -7 15 -29 15 -51 0 -32 4 -39 19 -39 14 0 21 -9 26 -31 4 -19 15
-33 26 -36 22 -6 23 -7 7 -32 -14 -24 4 -51 34 -51 11 0 28 -5 40 -11 17 -9
19 -17 14 -54 -6 -36 -3 -47 19 -73 30 -36 31 -47 5 -113 -26 -65 -23 -82 15
-89 29 -5 30 -7 28 -55 -1 -28 -4 -93 -6 -145 -3 -59 -11 -112 -22 -140 -10
-25 -20 -72 -24 -104 -6 -59 -6 -59 -46 -70 -34 -10 -40 -16 -43 -41 -2 -17
-16 -43 -32 -60 -15 -16 -31 -41 -35 -55 -4 -14 -22 -41 -40 -60 -20 -21 -36
-51 -40 -72 -6 -31 -12 -38 -30 -38 -13 0 -40 -16 -62 -35 -21 -19 -54 -48
-73 -64 -30 -25 -33 -31 -20 -45 12 -15 9 -22 -29 -59 l-42 -42 -40 44 c-21
24 -39 53 -39 64 0 27 -36 83 -69 107 -17 11 -31 33 -35 51 -7 38 -23 59 -43
59 -8 0 -28 9 -44 21 -39 28 -69 19 -108 -30 -24 -31 -39 -39 -73 -44 -44 -6
-78 -34 -78 -66 0 -22 -19 -41 -42 -41 -10 0 -37 17 -61 38 -23 21 -54 46 -69
55 -16 10 -28 24 -28 32 0 8 -14 30 -31 47 -17 18 -33 45 -36 61 -4 19 -23 41
-59 68 -29 21 -58 39 -63 39 -6 0 -22 -16 -37 -35 -41 -54 -61 -45 -96 45 -16
41 -36 81 -45 88 -26 19 -267 17 -283 -3 -7 -8 -21 -15 -31 -15 -16 0 -19 8
-19 49 0 56 -18 83 -67 99 -29 10 -36 8 -64 -15 l-30 -26 -27 20 c-15 10 -34
33 -42 51 -16 34 -45 41 -80 20 -15 -10 -25 -9 -52 5 -64 35 -108 57 -145 75
-27 12 -44 29 -58 59 -21 47 -37 58 -65 43 -55 -30 -65 2 -17 56 36 41 35 33
24 289 -4 101 -6 110 -23 108 -68 -9 -145 -6 -156 5 -7 7 -18 32 -23 55 -14
53 -37 59 -71 18 -29 -35 -54 -40 -54 -11 0 10 -5 43 -11 72 -9 42 -21 61 -60
99 -48 46 -49 48 -49 109 0 95 20 117 114 129 l51 6 30 90 c26 79 34 92 62
104 46 20 54 47 43 137 -5 42 -17 90 -25 107 -8 16 -15 39 -15 49 0 32 28 76
57 90 25 12 28 19 31 73 2 47 8 66 27 85 14 15 26 44 30 72 7 46 9 48 49 59
52 13 66 32 66 86 0 46 5 49 44 31z m-1987 -500 c1 -15 6 -44 12 -64 15 -55
-3 -109 -41 -125 -43 -18 -68 -55 -68 -103 1 -57 15 -115 33 -129 9 -7 17 -25
19 -42 3 -29 5 -30 56 -33 59 -3 78 -23 46 -47 -18 -14 -18 -15 4 -55 13 -23
22 -53 21 -68 -4 -36 7 -52 36 -52 26 0 45 -25 45 -59 0 -12 -7 -21 -15 -21
-46 0 -32 -87 16 -97 27 -5 29 -8 29 -55 0 -27 5 -58 11 -69 6 -13 8 -45 4
-84 -7 -58 -10 -65 -36 -76 -17 -6 -38 -23 -49 -36 -21 -27 -46 -25 -112 8
-21 11 -51 19 -68 19 -25 0 -42 11 -77 46 -32 33 -42 49 -34 57 15 15 14 69
-3 92 -9 14 -12 46 -11 105 3 119 3 117 25 123 13 3 20 13 20 29 0 33 -10 42
-57 56 -52 15 -69 44 -82 137 -10 68 -28 99 -63 111 -16 5 -18 12 -13 49 4 23
2 51 -3 62 -8 14 -6 33 7 72 14 44 24 57 52 70 18 9 41 30 49 47 8 17 20 29
27 27 18 -7 81 56 85 84 2 22 11 29 48 39 66 17 84 14 87 -18z m-1967 -103 c8
-55 14 -63 68 -78 45 -13 48 -16 70 -76 20 -58 21 -67 9 -121 -12 -50 -12 -63
0 -92 9 -21 13 -49 9 -76 -3 -24 -1 -63 5 -87 18 -72 -56 -341 -109 -394 -7
-8 -44 -78 -82 -155 -58 -121 -77 -150 -128 -198 -33 -31 -72 -60 -86 -64 -43
-10 -103 2 -135 28 -27 22 -90 133 -106 188 -19 64 -98 180 -123 180 -4 0 -29
20 -57 45 -69 62 -130 74 -205 40 -50 -23 -70 -53 -76 -118 -9 -91 -11 -96
-48 -103 -19 -3 -41 -2 -49 3 -17 9 -92 72 -146 121 -20 18 -69 49 -108 68
-40 20 -73 38 -73 40 0 3 6 17 14 32 13 26 19 59 17 94 -1 9 -18 33 -38 52
l-37 35 20 23 c31 34 35 52 24 110 -9 46 -8 55 12 86 21 31 49 46 148 78 9 3
22 -7 33 -27 16 -29 21 -31 57 -26 22 3 58 15 80 26 23 12 56 21 76 21 19 0
50 6 68 14 39 16 96 81 111 127 11 33 14 34 86 44 41 6 86 19 101 29 21 14 31
15 47 6 25 -13 26 -22 4 -78 -14 -38 -15 -49 -3 -80 7 -21 16 -62 19 -92 l6
-55 131 -3 c169 -3 171 -1 149 156 -10 69 13 131 60 164 19 12 35 26 35 30 0
5 15 25 34 45 18 21 39 48 45 61 9 17 19 22 39 20 23 -3 28 -9 32 -43z m-1507
-125 c48 -63 74 -104 112 -178 l27 -53 -27 -35 c-25 -33 -26 -39 -20 -107 6
-69 6 -73 -19 -96 -37 -35 -33 -64 14 -101 48 -38 50 -62 9 -101 -19 -17 -32
-42 -36 -65 l-6 -37 -93 7 c-72 6 -100 4 -128 -8 -68 -28 -122 -98 -172 -223
-42 -104 -52 -181 -30 -240 36 -101 -2 -267 -81 -353 -13 -14 -23 -28 -23 -31
0 -14 -127 -88 -177 -104 -62 -20 -88 -16 -157 27 -42 25 -62 31 -135 35 -95
6 -182 38 -202 75 -28 51 -28 80 -4 216 14 75 25 155 25 177 0 51 -23 126 -49
162 -32 45 -36 78 -12 102 12 12 33 21 49 21 127 -1 315 10 353 20 47 12 127
77 163 132 29 44 22 217 -12 283 -14 28 -51 84 -62 95 -20 18 -40 64 -40 88 0
27 5 31 54 46 33 10 69 32 91 53 63 61 142 103 196 103 40 0 51 4 73 31 14 17
26 35 26 41 0 13 105 114 145 139 l30 19 38 -42 c21 -24 57 -68 80 -98z m2547
-187 c0 -21 -56 -63 -84 -63 -40 0 -58 -12 -51 -32 4 -9 -3 -35 -15 -57 -18
-36 -19 -42 -5 -47 9 -4 22 -22 30 -40 8 -19 20 -34 28 -34 10 0 13 -8 10 -24
-3 -16 4 -33 21 -52 15 -16 36 -44 47 -63 l20 -33 23 21 c26 25 56 28 56 5 0
-17 69 -104 84 -104 5 0 30 -20 55 -43 26 -24 53 -46 60 -48 8 -3 16 -27 19
-58 5 -53 5 -54 -19 -46 -30 10 -73 10 -121 1 -28 -5 -42 -15 -53 -36 -13 -25
-22 -30 -52 -30 -30 0 -44 8 -77 43 -31 32 -57 47 -105 62 -80 24 -129 25
-146 2 -11 -16 -16 -16 -55 -2 -44 15 -106 20 -134 9 -9 -3 -16 -16 -16 -29 0
-33 -93 -65 -189 -65 l-72 0 -49 51 c-45 46 -53 51 -81 45 l-32 -6 27 25 c15
14 24 30 21 35 -4 6 8 38 25 71 23 45 30 68 25 90 -5 23 -1 36 19 59 25 30 25
49 3 78 -12 16 4 34 54 61 33 18 38 28 53 102 5 22 12 27 47 32 23 3 58 0 78
-6 34 -11 36 -16 52 -82 23 -97 24 -99 78 -134 65 -41 88 -41 96 3 5 24 18 41
49 64 51 35 65 72 41 108 -11 18 -22 23 -38 19 -16 -4 -29 1 -42 16 l-20 21
33 28 c38 32 132 60 200 60 27 0 57 6 68 15 21 16 34 19 34 8z m2574 -535 c8
-34 44 -52 111 -54 33 -1 63 -2 66 -3 4 -1 9 -36 13 -78 3 -43 9 -110 12 -149
6 -68 5 -72 -23 -105 -17 -19 -35 -44 -41 -56 -23 -44 16 -81 65 -62 24 9 30
8 38 -8 20 -37 82 -92 111 -99 16 -3 51 -21 79 -38 37 -23 61 -31 95 -31 39 0
51 -5 84 -37 21 -20 51 -41 67 -47 26 -9 32 -7 51 14 26 30 49 32 73 5 13 -14
16 -28 11 -53 -5 -26 -1 -40 15 -60 25 -33 41 -34 80 -4 28 20 41 22 137 19
58 -1 111 -7 118 -12 15 -13 64 -144 64 -172 0 -11 -9 -32 -19 -47 -11 -15
-25 -48 -32 -74 -6 -25 -24 -60 -40 -77 -16 -16 -29 -38 -29 -49 0 -10 -7 -24
-16 -32 -8 -7 -22 -25 -30 -40 -7 -15 -23 -30 -34 -34 -13 -4 -24 -23 -33 -53
-11 -37 -19 -48 -38 -50 -36 -6 -45 -17 -63 -82 -17 -61 -36 -76 -63 -49 -6 6
-23 9 -37 5 -34 -8 -76 -98 -76 -161 0 -38 -4 -48 -19 -52 -24 -6 -31 -31 -31
-109 0 -59 -1 -62 -41 -94 -41 -32 -41 -34 -35 -83 3 -28 2 -55 -3 -61 -12
-16 -41 -140 -41 -175 0 -16 -12 -53 -27 -82 -25 -48 -28 -62 -25 -141 2 -50
-4 -122 -13 -169 -8 -44 -12 -91 -9 -104 5 -20 0 -26 -30 -39 -38 -16 -43 -30
-37 -101 1 -18 -5 -34 -15 -42 -9 -7 -22 -23 -28 -35 -23 -46 -48 -29 -86 59
-19 44 -43 90 -54 102 -10 11 -27 53 -38 93 -11 41 -32 90 -49 113 -16 22 -34
51 -40 65 -6 14 -20 44 -30 68 -10 23 -19 51 -19 62 0 10 -14 30 -31 43 -25
20 -33 35 -40 78 -5 30 -22 81 -39 113 -16 32 -30 68 -30 79 0 11 -8 29 -17
39 -21 23 -34 112 -23 158 19 80 31 239 20 260 -16 31 -61 23 -78 -12 -8 -16
-21 -28 -32 -28 -19 0 -60 36 -60 52 0 4 -9 17 -20 28 -20 20 -20 20 10 47 43
38 37 65 -15 77 -22 4 -46 10 -52 12 -7 2 -13 19 -13 38 0 41 -11 50 -66 51
-54 1 -84 26 -84 71 0 18 -5 45 -10 59 -10 25 -13 27 -63 23 -28 -2 -58 -6
-66 -9 -11 -3 -20 14 -32 59 -10 35 -25 74 -33 87 -12 18 -14 39 -10 82 6 57
5 59 -30 92 -25 24 -36 44 -36 64 0 15 -8 47 -19 70 -10 23 -22 65 -26 92 -5
36 -15 59 -37 81 l-29 31 11 104 c18 169 18 167 50 184 38 20 130 130 130 156
0 24 36 39 96 39 50 0 94 32 94 70 0 29 35 60 69 60 17 0 51 -15 81 -35 45
-31 60 -35 113 -35 61 0 61 0 112 54 72 77 147 107 159 64z m-4383 -95 c14 -3
33 -18 43 -34 11 -18 25 -29 40 -29 15 0 31 -12 47 -37 16 -25 32 -38 48 -39
33 -2 41 -19 42 -99 1 -87 10 -119 32 -123 10 -2 29 -14 42 -28 13 -13 31 -24
39 -24 10 0 17 -15 22 -47 4 -27 11 -59 17 -73 12 -29 25 -107 35 -205 8 -79
15 -95 42 -95 11 0 24 -9 30 -20 7 -13 21 -20 40 -20 26 0 29 -4 32 -37 4 -53
28 -56 28 -4 0 44 21 64 43 42 15 -15 80 -14 95 1 20 20 14 36 -28 74 -45 41
-51 73 -19 105 11 11 18 27 15 36 -3 8 -6 25 -6 38 0 15 -19 45 -46 76 -58 65
-55 82 14 90 73 9 82 15 82 46 1 18 10 35 26 46 14 11 26 17 28 15 11 -15 46
-81 44 -82 -2 -1 -15 -7 -30 -14 -40 -17 -35 -39 22 -117 31 -42 50 -78 50
-95 0 -53 21 -90 66 -116 36 -21 53 -25 84 -20 l40 6 0 -44 c0 -47 11 -62 57
-75 42 -12 66 3 58 38 -6 30 19 91 39 91 7 0 34 -14 62 -32 43 -28 58 -32 124
-33 41 -1 83 -5 92 -9 13 -6 22 0 39 28 19 33 25 36 65 36 l45 0 -2 -47 c-1
-27 2 -66 9 -88 6 -22 12 -119 14 -215 3 -189 3 -192 -58 -254 -51 -52 -63
-58 -100 -46 -32 11 -38 10 -59 -10 l-24 -23 -83 21 c-81 20 -151 39 -254 68
-28 8 -71 14 -96 14 -34 0 -50 6 -68 25 -43 46 -97 59 -215 51 l-105 -7 0 25
c0 14 -4 26 -10 26 -5 0 -10 -11 -10 -25 0 -16 -7 -28 -17 -31 -10 -4 -48 -18
-85 -32 l-68 -25 -72 28 c-51 20 -86 42 -115 72 -37 38 -47 43 -87 43 -48 0
-71 18 -96 79 -8 20 -24 35 -46 43 -28 10 -35 19 -44 60 -10 39 -20 54 -56 79
-23 18 -50 46 -58 64 -9 18 -23 36 -32 39 -15 6 -15 8 2 21 10 8 36 19 56 25
28 8 40 18 44 36 4 13 19 31 35 39 33 17 43 34 80 126 30 78 28 122 -7 146
-31 20 -30 29 1 37 20 5 35 -1 65 -25 35 -28 43 -31 72 -23 26 8 36 18 47 50
14 39 13 41 -12 67 -15 14 -27 32 -27 40 0 7 -20 28 -44 45 -41 30 -45 37 -52
88 -3 31 -12 58 -19 61 -7 2 -27 -3 -44 -11 -39 -21 -41 -20 -41 9 0 14 -7 28
-15 31 -20 8 -31 70 -15 90 7 8 20 12 29 9 9 -4 28 -9 42 -12z m-492 -46 c6
-8 14 -29 17 -47 5 -23 17 -38 41 -52 18 -11 38 -29 44 -39 7 -14 16 -18 33
-13 18 4 28 -1 45 -25 13 -17 28 -31 36 -31 7 0 38 -21 69 -47 53 -45 56 -50
56 -94 0 -36 6 -52 25 -74 l26 -27 -46 -49 c-25 -26 -45 -52 -45 -57 0 -17
-69 -21 -98 -6 -38 19 -65 18 -96 -7 -21 -17 -26 -29 -26 -66 0 -35 4 -46 19
-50 10 -2 24 -16 30 -30 8 -17 17 -24 30 -20 10 2 23 -3 30 -14 6 -11 19 -20
29 -20 9 -1 -29 -5 -86 -9 -83 -6 -107 -11 -125 -28 -39 -35 -148 -84 -202
-89 -40 -4 -53 -10 -61 -27 -15 -35 -89 -66 -141 -59 -33 4 -56 1 -91 -14 -79
-34 -133 -46 -236 -50 -89 -4 -98 -3 -92 12 3 9 6 29 6 44 0 20 7 31 25 39 13
6 31 25 40 42 15 29 19 31 54 25 35 -6 41 -3 58 22 11 15 26 50 33 76 13 50
37 79 105 134 32 25 38 34 28 44 -7 7 -13 20 -13 28 0 9 -14 43 -30 76 -27 53
-29 67 -24 116 5 41 2 64 -10 87 l-16 32 50 47 c34 32 50 55 50 73 0 14 7 34
15 44 8 11 15 28 15 37 0 10 5 30 12 44 10 22 17 25 60 25 36 0 48 -4 48 -15
0 -8 11 -17 24 -21 14 -3 27 -12 30 -20 3 -8 20 -14 41 -14 28 0 42 8 72 40
34 35 43 40 84 40 27 0 51 -6 58 -13z m3666 -8 c48 -13 80 -41 106 -91 15 -30
26 -38 56 -43 63 -11 67 -14 99 -63 l32 -47 -15 -144 -15 -145 30 -25 c24 -20
32 -37 38 -76 4 -27 15 -67 25 -90 10 -22 19 -53 19 -69 0 -18 12 -42 35 -67
37 -41 41 -61 25 -105 -8 -21 -7 -33 9 -59 11 -18 22 -63 26 -99 7 -61 6 -66
-12 -66 -11 0 -34 -18 -52 -40 -18 -23 -50 -52 -72 -66 -22 -14 -45 -37 -50
-52 -11 -31 -44 -58 -82 -68 -29 -7 -34 1 -56 82 -12 47 -41 77 -64 68 -15 -5
-47 -72 -47 -98 0 -10 -11 -12 -44 -9 -26 3 -46 1 -50 -6 -12 -18 -23 -13 -36
19 -10 23 -19 30 -40 30 -25 0 -32 7 -54 56 -22 48 -26 71 -26 149 0 74 -4 97
-18 115 l-17 21 -45 -19 c-25 -11 -51 -26 -58 -35 -7 -8 -31 -18 -53 -22 -26
-5 -45 -15 -55 -31 -15 -23 -14 -27 29 -92 24 -37 52 -73 61 -81 10 -8 16 -29
16 -52 0 -28 7 -45 23 -60 12 -11 27 -25 32 -31 6 -6 26 -27 46 -47 19 -20 40
-54 47 -76 13 -47 31 -73 52 -76 8 -2 50 1 93 5 72 7 78 10 93 37 18 36 45 35
54 -1 4 -18 13 -26 35 -28 16 -2 40 -12 53 -22 13 -11 40 -24 60 -31 52 -17
62 -27 62 -65 0 -23 6 -38 20 -46 26 -16 25 -43 -1 -114 -14 -37 -19 -68 -16
-91 7 -39 -5 -78 -32 -108 -10 -11 -21 -41 -23 -66 -4 -34 -26 -84 -79 -178
l-74 -132 -33 5 c-36 5 -40 3 -107 -84 -22 -28 -55 -58 -73 -66 -19 -7 -36
-23 -39 -34 -6 -23 -96 -69 -184 -95 -61 -17 -329 -56 -341 -48 -4 2 -16 23
-26 46 -10 23 -26 48 -35 56 -13 10 -17 31 -17 86 0 67 -2 75 -35 116 -19 24
-35 53 -35 65 0 27 -34 58 -92 83 -45 19 -108 87 -108 116 0 7 -15 26 -34 43
-19 17 -44 48 -55 70 -11 22 -28 42 -38 44 -11 3 -30 35 -51 86 -23 56 -44 91
-71 115 -22 20 -42 45 -46 56 -3 11 -27 37 -53 58 -26 20 -51 41 -57 45 -5 5
-10 28 -11 51 -1 23 -6 62 -12 87 -6 25 -15 63 -20 85 -5 22 -18 61 -28 87
l-18 48 26 27 27 28 -10 215 c-6 118 -11 244 -12 279 -3 79 -19 95 -87 85 -31
-4 -53 -14 -69 -32 -23 -26 -28 -27 -109 -23 -71 3 -91 8 -131 31 -79 48 -86
48 -120 -7 -17 -26 -29 -54 -26 -61 8 -22 -5 -33 -26 -22 -14 8 -19 21 -19 54
0 57 -17 72 -65 56 -33 -11 -40 -10 -75 14 -31 20 -40 34 -45 63 -12 73 -15
82 -55 132 -22 28 -40 55 -40 61 0 6 11 15 25 20 33 13 42 36 22 58 -46 50
-61 160 -30 210 9 15 35 48 56 75 46 55 84 63 111 22 38 -58 54 -65 145 -65
107 0 214 34 219 69 5 33 27 36 104 16 63 -16 70 -16 87 -1 39 36 154 5 220
-60 40 -39 49 -44 91 -44 40 0 50 4 77 35 26 29 38 35 72 35 40 0 40 0 38 -37
-2 -34 1 -39 40 -60 40 -23 44 -23 72 -8 17 8 41 15 53 15 13 0 41 9 63 20 22
11 49 20 60 20 11 0 29 6 40 14 11 7 46 16 77 20 43 6 62 13 74 29 l15 22 32
-36 c36 -41 65 -59 97 -59 12 0 41 -9 66 -21 25 -11 67 -23 94 -26 46 -5 50
-4 59 20 6 16 25 32 45 41 26 11 35 21 38 43 3 26 6 28 43 28 27 0 50 8 69 23
33 25 37 26 91 11z m-2617 -526 c28 -38 3 -109 -36 -97 -64 21 -80 54 -47 101
18 25 62 23 83 -4z m5227 -315 c20 -14 43 -42 55 -68 30 -67 77 -128 120 -155
21 -13 44 -33 52 -43 43 -61 148 -53 148 11 0 36 15 49 64 54 38 5 50 11 68
37 38 55 44 57 99 29 37 -19 49 -31 49 -48 0 -13 16 -42 35 -65 37 -44 46 -77
19 -66 -23 9 -68 -19 -83 -51 -17 -37 -36 -191 -28 -225 11 -44 33 -58 92 -58
l54 0 7 -36 c4 -20 4 -58 1 -86 l-6 -50 27 7 c75 18 80 18 96 -8 9 -13 25 -56
36 -95 11 -40 33 -93 49 -119 22 -35 33 -71 42 -133 17 -121 -4 -225 -60 -309
-23 -33 -41 -64 -41 -70 0 -13 -80 -105 -95 -109 -6 -1 -24 29 -39 68 -15 38
-32 72 -37 76 -5 3 -9 20 -9 38 0 36 -11 49 -50 61 -14 4 -44 25 -67 45 -60
52 -133 64 -133 21 0 -9 -16 -32 -35 -51 -19 -19 -35 -39 -35 -45 0 -7 17 -23
38 -36 36 -23 37 -26 43 -99 7 -79 59 -239 85 -261 22 -18 6 -29 -45 -29 -40
0 -50 4 -58 23 -6 12 -39 60 -74 107 -62 84 -63 86 -65 156 -2 52 -9 83 -26
115 -19 37 -23 59 -23 135 0 63 -5 101 -16 125 -9 19 -21 48 -25 64 -7 23 -22
37 -63 58 -30 15 -69 27 -86 27 -23 0 -35 6 -45 25 -11 21 -18 24 -50 19 -36
-6 -38 -4 -76 49 -21 31 -67 92 -101 137 -50 65 -63 88 -63 117 0 28 -8 43
-35 69 -46 43 -75 107 -75 165 0 39 4 49 25 63 14 9 25 22 25 28 0 6 11 26 25
44 14 18 25 38 25 43 0 6 14 25 30 43 17 17 30 38 30 47 0 55 25 98 94 163 39
37 72 68 74 68 1 0 18 -10 37 -22z"/>
<path d="M10530 6915 c0 -42 3 -55 15 -55 16 0 20 44 9 88 -11 40 -24 23 -24
-33z"/>
<path d="M10540 6781 c0 -39 4 -51 16 -51 12 0 14 10 12 47 -4 66 -28 70 -28
4z"/>
<path d="M4853 12643 c-14 -3 -24 -14 -28 -34 -5 -23 -11 -29 -23 -24 -38 15
-78 17 -89 3 -5 -7 -13 -30 -16 -50 -3 -20 -29 -76 -59 -124 -47 -77 -53 -93
-56 -153 -4 -61 -2 -70 23 -99 38 -45 31 -74 -23 -91 -24 -7 -45 -11 -48 -8
-2 2 -7 27 -11 56 l-6 51 -47 0 c-57 0 -60 -5 -60 -96 l0 -64 -41 0 c-55 0
-156 27 -197 52 -41 25 -66 19 -141 -31 -74 -50 -93 -54 -169 -33 l-64 17 -27
-33 c-38 -47 -99 -55 -135 -19 -18 18 -26 37 -26 61 0 37 -16 57 -26 32 -13
-33 -63 -12 -162 67 -71 56 -118 76 -180 77 -39 0 -43 2 -48 30 -6 28 -9 30
-53 30 -26 0 -74 -7 -106 -16 -33 -9 -87 -19 -120 -23 -49 -5 -62 -10 -70 -28
-12 -27 -32 -33 -122 -33 -66 0 -74 -2 -112 -34 -37 -31 -44 -33 -80 -25 -22
5 -75 24 -118 43 -112 49 -116 49 -202 31 l-79 -17 -103 30 c-57 17 -120 33
-140 37 -20 3 -53 18 -73 34 -30 24 -43 28 -76 24 -36 -5 -46 -1 -106 46 -81
62 -114 66 -197 21 -42 -22 -70 -30 -109 -30 -52 0 -95 -18 -143 -59 -11 -10
-47 -24 -80 -31 -33 -7 -68 -16 -78 -21 -25 -14 -20 -49 13 -89 20 -22 34 -55
42 -93 10 -45 19 -63 38 -75 14 -9 27 -17 29 -19 7 -5 -31 -43 -43 -43 -5 0
-20 12 -32 28 -20 25 -28 27 -86 26 -69 -2 -121 -22 -138 -53 -5 -11 -10 -47
-10 -81 0 -76 49 -187 78 -175 37 16 106 35 110 31 7 -8 -49 -75 -68 -81 -11
-3 -32 1 -48 9 -17 9 -47 18 -68 22 -33 5 -46 1 -82 -26 -31 -22 -41 -36 -37
-49 9 -29 -22 -101 -65 -147 -38 -41 -59 -88 -46 -101 3 -3 23 0 45 7 52 17
64 8 56 -41 l-7 -39 40 0 c39 0 40 -1 52 -47 17 -62 25 -71 67 -79 26 -5 47
-1 80 15 43 21 84 27 96 15 4 -4 -8 -24 -27 -44 -21 -24 -35 -52 -40 -79 -6
-37 -9 -42 -27 -38 -34 9 -66 -9 -95 -53 -15 -22 -33 -40 -41 -40 -24 0 -84
-32 -90 -47 -6 -16 64 -82 89 -83 10 0 22 8 27 19 6 10 23 21 38 24 18 4 42
25 69 60 31 40 50 56 75 61 21 4 55 28 95 66 39 38 71 60 86 60 12 0 41 10 63
23 30 17 41 31 48 60 11 45 38 65 111 82 61 14 90 6 51 -15 -26 -14 -51 -71
-41 -95 7 -19 136 -19 204 1 47 13 52 17 50 41 -2 16 4 29 15 37 15 9 24 5 55
-31 23 -26 49 -44 70 -48 22 -5 37 -16 47 -35 14 -27 62 -50 104 -50 7 0 24
-12 37 -26 17 -18 30 -23 44 -19 40 13 60 -3 60 -48 1 -49 14 -77 54 -108 26
-20 28 -26 22 -68 -6 -43 -4 -47 34 -82 25 -23 40 -45 40 -61 0 -13 18 -45 40
-71 22 -27 42 -65 46 -84 4 -20 21 -52 39 -72 18 -20 35 -51 38 -69 4 -19 17
-48 29 -65 22 -31 25 -53 28 -194 0 -12 7 -28 16 -35 51 -43 54 -47 54 -106 0
-38 -7 -70 -20 -95 -11 -20 -20 -48 -20 -61 0 -13 -14 -53 -31 -90 -22 -48
-37 -105 -55 -213 -13 -82 -29 -164 -35 -183 -6 -19 -13 -107 -16 -196 -6
-188 4 -237 67 -327 22 -32 46 -70 54 -86 23 -44 46 -168 46 -249 0 -40 4 -82
10 -92 5 -10 34 -32 64 -48 71 -41 96 -76 96 -139 0 -26 9 -83 20 -127 11 -43
20 -94 20 -112 0 -46 19 -83 47 -90 23 -6 24 -9 17 -74 -9 -97 18 -135 69 -95
10 7 41 19 68 25 46 11 52 10 72 -8 12 -10 41 -32 65 -47 25 -17 42 -35 42
-47 0 -24 -24 -70 -44 -87 -27 -22 -20 -59 14 -76 23 -12 30 -22 30 -44 0 -61
20 -78 130 -106 66 -17 217 -74 280 -105 47 -24 62 -44 90 -115 13 -33 34 -76
46 -95 27 -41 43 -106 44 -170 0 -27 8 -57 19 -74 13 -20 18 -39 14 -62 -4
-26 0 -37 19 -56 14 -13 30 -33 37 -45 6 -12 27 -34 47 -49 34 -27 36 -27 64
-11 23 14 30 15 39 3 7 -8 25 -19 42 -26 19 -8 41 -31 59 -64 l29 -50 -33 -41
c-51 -63 -56 -77 -56 -179 l0 -95 -39 -45 c-22 -25 -42 -60 -46 -78 -4 -18
-25 -77 -46 -130 l-39 -97 22 -46 c18 -38 20 -49 10 -65 -17 -28 -15 -163 3
-207 8 -19 30 -52 49 -73 27 -30 34 -48 40 -97 l7 -61 119 -123 120 -124 -6
-41 c-5 -32 0 -52 19 -90 26 -51 104 -124 154 -146 15 -7 44 -24 63 -39 19
-15 51 -33 71 -42 21 -9 50 -34 72 -65 28 -40 45 -53 76 -62 23 -6 45 -19 51
-30 14 -26 15 -216 1 -267 -6 -23 -11 -68 -9 -100 1 -32 -4 -75 -11 -96 -11
-32 -10 -45 8 -97 19 -54 20 -64 7 -88 -7 -15 -17 -61 -20 -102 -4 -41 -12
-94 -18 -117 -7 -31 -7 -59 3 -105 15 -77 14 -149 -4 -225 -8 -32 -15 -78 -15
-101 -1 -24 -6 -50 -12 -57 -9 -11 -9 -23 0 -49 12 -38 8 -68 -22 -140 -17
-41 -19 -66 -16 -170 3 -108 5 -124 26 -152 20 -26 22 -36 14 -65 -5 -21 -5
-45 1 -62 6 -20 6 -36 -2 -50 -20 -41 -49 -182 -44 -214 3 -19 -2 -53 -13 -82
-17 -47 -17 -51 1 -98 10 -26 27 -59 37 -73 11 -15 20 -51 24 -90 6 -65 15
-93 60 -183 13 -26 24 -62 24 -81 0 -24 7 -40 23 -53 12 -10 27 -29 33 -43 6
-14 24 -37 40 -53 88 -84 152 -135 179 -141 16 -4 35 -16 43 -27 7 -10 22 -19
32 -19 12 0 20 -8 22 -22 3 -25 43 -36 132 -37 48 -1 51 -3 122 -75 63 -65 78
-75 118 -81 36 -6 51 -3 73 12 36 25 88 43 125 43 64 0 84 33 49 79 -17 22
-26 24 -75 22 -55 -2 -56 -2 -72 33 -16 31 -64 63 -77 50 -2 -3 -28 -8 -56
-13 l-51 -8 0 42 c0 26 -6 48 -15 55 -8 7 -15 25 -15 41 0 20 -11 38 -35 60
-31 28 -34 36 -29 69 5 29 1 44 -20 75 -37 54 -35 110 4 160 23 29 28 44 23
64 -3 14 -7 28 -9 30 -2 2 2 11 8 18 16 20 24 191 9 206 -6 6 -11 24 -11 40 0
17 -7 35 -16 42 -14 10 -15 15 -4 36 7 13 25 34 41 47 16 13 41 48 55 77 24
48 25 57 14 84 -11 27 -9 35 11 67 18 30 20 40 11 55 -19 30 -14 39 23 39 19
0 39 6 44 13 76 92 83 107 70 147 -6 17 -9 33 -6 36 3 3 34 8 69 11 35 3 75
12 90 19 15 8 37 14 50 14 47 0 96 21 131 56 48 48 55 73 29 94 -12 10 -22 32
-24 51 -2 28 -10 38 -40 54 -49 26 -51 48 -5 40 21 -4 48 -1 71 9 21 9 76 22
124 31 97 17 113 26 94 55 -10 17 -9 22 11 34 12 8 41 22 65 31 23 10 42 23
42 31 0 8 9 31 20 51 11 21 20 45 20 54 0 9 7 22 16 30 24 20 44 65 44 99 0
28 5 33 50 52 65 27 76 56 60 164 -8 63 -8 80 3 93 8 9 20 39 26 66 20 83 47
132 80 149 34 18 169 51 251 61 72 10 131 36 191 86 40 35 49 48 49 75 0 23 5
34 19 39 19 6 48 63 53 105 2 17 13 29 36 39 21 10 35 24 39 40 3 14 10 31 15
38 5 6 8 49 7 95 -1 45 2 92 8 103 7 13 9 57 6 122 -6 96 -5 102 17 119 79 65
75 59 73 118 l-3 55 38 10 c20 6 49 13 64 16 19 4 34 17 48 45 11 21 31 56 46
77 19 29 25 48 23 83 -1 25 1 56 5 68 6 18 3 27 -13 38 -13 10 -21 26 -21 45
0 60 -52 124 -115 140 -22 6 -53 23 -70 38 -40 36 -160 97 -210 106 -22 4 -48
14 -57 22 -13 11 -43 17 -107 19 -109 3 -124 7 -141 39 -9 16 -28 29 -54 36
-23 7 -59 18 -82 26 -26 9 -86 15 -160 16 -96 2 -125 6 -147 20 l-27 17 40 36
c49 45 52 76 10 129 -16 21 -35 56 -40 79 -23 88 -41 125 -74 145 -18 11 -41
29 -51 41 -20 23 -46 26 -74 8 -24 -15 -131 5 -144 27 -4 8 -13 15 -19 15 -7
0 -31 9 -55 21 -39 19 -44 19 -65 5 -33 -24 -58 -20 -58 7 0 27 -17 47 -41 47
-9 0 -19 7 -23 15 -3 8 -17 15 -31 15 -33 0 -73 28 -151 107 -34 34 -91 83
-126 108 l-63 47 -93 -7 c-80 -5 -102 -3 -158 15 -37 13 -77 20 -93 17 -17 -4
-35 1 -51 13 -30 23 -53 25 -69 6 -6 -8 -23 -16 -36 -19 -20 -3 -25 0 -25 17
0 11 -9 36 -20 54 -20 32 -21 33 -73 26 -69 -9 -88 -17 -129 -52 -23 -21 -52
-34 -91 -41 -43 -8 -81 -26 -155 -74 -62 -41 -112 -66 -137 -70 -22 -3 -50 -9
-63 -13 -18 -5 -24 -2 -29 14 -10 41 -76 42 -140 2 -47 -30 -68 -35 -97 -24
-12 5 -15 15 -10 48 3 22 9 52 14 66 5 14 11 37 14 52 5 21 13 27 39 30 l32 3
-3 58 c-2 53 0 58 23 67 33 13 48 53 42 115 -4 44 -10 54 -51 90 -45 40 -62
85 -32 85 26 0 56 35 60 71 3 24 17 47 44 75 43 42 58 83 69 178 6 59 6 59
-18 52 -46 -15 -87 -18 -93 -7 -10 15 -62 14 -94 -3 -18 -10 -33 -30 -45 -65
-14 -41 -22 -51 -40 -51 -12 0 -46 -9 -75 -20 -65 -25 -108 -25 -147 -1 -87
53 -126 297 -62 384 14 17 34 53 45 78 15 35 31 52 63 70 28 16 52 39 67 66
29 53 71 69 283 113 191 39 272 38 429 -10 l105 -32 52 22 c67 28 83 19 112
-59 14 -40 28 -62 42 -66 20 -7 21 -12 15 -79 l-7 -71 55 -59 c48 -52 57 -57
83 -52 17 4 45 17 64 30 l33 23 -3 82 c-2 51 -10 98 -21 124 -23 53 -33 207
-14 207 20 0 44 41 44 76 0 38 9 46 80 73 78 29 275 207 292 263 14 49 2 63
-59 67 -18 1 -26 56 -11 81 7 12 29 30 49 41 21 10 70 58 111 106 52 62 84 91
109 99 20 7 41 24 52 41 16 28 16 33 2 66 -22 54 -19 89 15 133 16 21 30 45
30 51 0 7 13 19 29 28 17 8 38 28 48 45 11 19 26 30 39 30 12 0 36 3 53 6 28
6 31 4 31 -20 0 -14 -9 -40 -20 -58 -11 -18 -20 -42 -20 -54 0 -20 38 -64 55
-64 4 0 25 17 46 38 21 20 48 46 60 57 11 11 35 44 53 74 24 41 39 56 66 65
29 9 41 22 67 75 39 76 33 104 -20 99 -25 -2 -36 -11 -52 -40 -11 -21 -23 -38
-27 -38 -3 0 -20 11 -36 24 -23 20 -28 31 -24 55 2 17 -3 49 -12 72 -12 30
-15 56 -10 105 6 59 5 67 -16 89 -30 32 -95 51 -127 36 -12 -6 -39 -36 -59
-66 -38 -60 -53 -65 -69 -21 -8 24 -5 30 20 51 17 13 41 26 54 30 13 3 38 17
55 30 47 36 77 39 123 15 l40 -21 74 20 c41 11 93 25 117 31 35 9 42 15 42 35
0 55 18 73 83 80 43 5 66 14 81 30 12 12 35 30 53 39 18 9 37 25 43 35 5 11
26 25 45 31 44 15 54 34 62 115 7 76 -4 86 -68 65 -21 -7 -42 -11 -45 -7 -11
11 15 43 50 62 20 11 36 22 36 25 0 4 -22 13 -49 22 -46 15 -51 14 -77 -3 -31
-20 -44 -17 -44 11 0 20 -54 70 -76 70 -8 0 -14 8 -14 18 0 27 -29 62 -51 62
-12 0 -19 7 -19 18 0 10 -7 27 -15 39 -9 12 -13 33 -10 45 2 13 1 39 -3 58 -7
32 -11 35 -42 35 l-35 0 -5 82 c-3 47 -10 88 -18 95 -21 21 -63 -10 -93 -67
-19 -38 -32 -51 -55 -55 -36 -8 -67 -24 -84 -44 -23 -28 -48 -19 -59 22 -14
49 -14 57 3 71 11 10 13 29 9 84 -4 66 -8 75 -38 102 -44 40 -49 63 -26 118
18 42 18 57 0 57 -4 0 -15 -22 -25 -49 -20 -57 -54 -77 -54 -32 l0 27 -117 13
c-233 26 -234 25 -185 -99 18 -45 30 -86 26 -91 -3 -5 -16 -9 -30 -9 -31 0
-64 -33 -58 -57 4 -14 -2 -23 -20 -31 -22 -10 -26 -18 -26 -51 0 -21 11 -67
24 -102 31 -84 42 -159 24 -159 -31 0 -52 -28 -57 -76 l-6 -49 -45 -2 c-25 -1
-53 -2 -62 -2 -12 -1 -23 -21 -38 -71 -19 -64 -19 -72 -5 -99 29 -56 16 -149
-28 -201 -14 -16 -27 -35 -29 -42 -6 -18 -57 22 -64 52 -4 14 -13 37 -21 53
-12 24 -12 30 2 49 15 23 19 89 6 121 -3 10 -17 23 -31 30 -39 20 -34 35 19
61 61 31 82 63 56 82 -19 14 -46 11 -103 -12 -33 -14 -73 -7 -87 15 -10 17
-44 13 -85 -10 l-39 -22 -31 27 c-25 20 -42 26 -80 26 -45 0 -51 3 -82 41 -18
22 -52 64 -76 92 -24 29 -51 66 -62 84 l-19 32 30 21 c29 22 38 40 18 40 -6 0
-22 -9 -36 -20 -14 -11 -30 -20 -36 -20 -10 0 -2 140 13 204 10 44 89 151 198
267 70 74 88 88 129 98 96 24 114 56 68 123 -42 62 -32 75 21 28 59 -52 121
-50 146 5 6 13 19 27 29 30 11 4 31 26 45 51 23 39 30 44 61 44 43 0 68 13
116 58 42 41 46 57 16 81 -21 16 -21 17 -2 54 10 20 24 37 31 37 17 0 15 30
-3 30 -28 0 -60 21 -77 51 -22 38 -53 38 -72 0 -8 -15 -32 -43 -52 -61 -33
-28 -42 -31 -77 -26 -56 9 -60 13 -40 47 26 44 9 64 -53 64 -39 0 -54 5 -74
25 -14 14 -25 31 -26 38 -1 7 -2 27 -2 46 -1 18 -13 50 -28 71 -30 44 -27 66
16 143 27 47 34 52 65 52 34 0 65 27 65 58 0 8 9 25 20 39 11 14 20 36 20 48
0 32 -30 41 -97 28z m61 -32 c3 -5 -1 -14 -9 -21 -8 -7 -20 -30 -27 -52 -11
-39 -13 -40 -49 -34 l-36 6 -42 -81 c-22 -44 -41 -91 -41 -104 0 -13 11 -41
25 -61 20 -30 25 -49 25 -100 0 -52 3 -64 16 -64 9 0 27 -9 41 -20 17 -13 41
-20 71 -20 42 0 44 -1 30 -17 -42 -49 -21 -79 62 -88 65 -7 105 13 142 70 13
19 28 33 33 32 14 -5 19 -47 6 -60 -17 -17 -13 -24 13 -31 19 -5 22 -11 18
-31 -2 -14 3 -36 13 -51 16 -24 16 -27 -2 -46 -24 -28 -74 -48 -117 -48 -30 0
-38 -5 -52 -32 -9 -18 -41 -57 -69 -86 -61 -60 -65 -60 -138 2 -51 43 -61 41
-76 -12 -8 -27 -5 -36 20 -68 16 -20 29 -40 29 -44 0 -15 -28 -30 -79 -42 -51
-11 -59 -18 -168 -139 l-114 -127 -124 -7 c-68 -4 -127 -5 -132 -2 -5 3 -63 6
-128 7 -196 3 -1148 29 -1450 40 -441 17 -488 20 -505 36 -11 11 -14 37 -12
122 5 177 32 614 40 652 8 34 10 35 82 52 84 20 80 20 205 -33 135 -57 153
-58 204 -15 38 32 47 35 104 35 96 -1 137 9 147 37 8 19 17 24 47 24 21 0 71
9 112 20 109 29 129 27 136 -12 6 -33 7 -33 63 -33 80 0 101 -8 173 -66 70
-56 128 -89 157 -89 12 0 22 -12 31 -35 15 -42 54 -65 110 -65 32 0 49 7 78
33 l38 34 50 -14 c67 -18 114 -9 172 33 73 53 90 58 127 35 68 -43 245 -68
274 -39 7 7 9 27 5 54 -8 58 2 94 27 94 14 0 20 -7 20 -24 0 -13 3 -38 6 -55
6 -27 10 -31 40 -31 114 0 170 90 95 152 -16 13 -21 29 -21 63 0 50 15 87 74
182 21 34 40 79 43 102 3 23 10 41 15 41 5 0 26 -9 48 -20 22 -11 41 -20 44
-20 2 0 7 14 11 30 10 47 53 78 69 51z m-3302 -305 c64 -53 97 -68 138 -60 22
5 36 0 60 -19 17 -15 47 -29 68 -32 20 -3 75 -18 122 -33 l85 -27 0 -115 c0
-63 -6 -249 -14 -412 -11 -231 -12 -300 -2 -312 7 -9 42 -17 92 -21 51 -5 86
-13 98 -24 11 -9 36 -56 56 -106 36 -87 37 -93 30 -172 -6 -79 -6 -84 20 -117
15 -19 42 -44 61 -55 30 -18 34 -25 34 -64 0 -48 -13 -67 -45 -67 -28 0 -51
-26 -59 -67 -12 -54 -46 -50 -60 8 -3 15 -22 41 -41 58 -21 18 -33 36 -29 43
17 28 4 71 -35 113 -35 38 -41 51 -41 89 0 52 -24 76 -76 76 -21 0 -36 7 -46
21 -13 20 -27 24 -86 28 -15 1 -30 13 -43 36 -15 25 -30 36 -56 41 -22 4 -47
20 -70 45 -20 22 -45 39 -56 39 -33 0 -77 -32 -77 -57 0 -31 -13 -36 -97 -38
-69 -1 -74 0 -71 19 2 12 16 27 36 35 39 17 40 30 7 61 -24 22 -27 23 -82 10
-91 -20 -129 -43 -143 -87 -18 -54 -26 -61 -86 -79 -39 -11 -67 -29 -107 -68
-57 -57 -97 -76 -97 -47 0 37 21 85 55 122 19 21 35 46 35 54 0 37 -82 46
-151 16 -26 -11 -55 -17 -71 -14 -23 4 -28 11 -34 52 -8 58 -19 71 -56 71 -27
0 -29 2 -23 29 5 24 1 32 -25 51 -17 12 -37 19 -45 16 -23 -9 -18 7 14 43 28
32 61 107 61 139 0 47 84 69 140 37 39 -22 66 -18 105 16 40 35 65 77 65 109
0 25 -18 25 -94 0 -33 -11 -60 -19 -61 -18 -36 53 -58 173 -37 204 14 22 52
34 106 34 43 0 56 -4 56 -15 0 -18 31 -35 65 -35 17 0 37 12 60 38 19 20 35
41 35 45 0 4 -16 15 -35 23 -20 8 -37 20 -39 27 -2 7 -10 34 -16 60 -7 26 -26
64 -42 84 -16 20 -25 40 -21 43 5 4 39 15 77 24 46 11 81 27 103 47 19 16 37
29 41 30 4 1 32 2 62 3 40 2 72 11 115 34 80 43 102 41 167 -12z m3933 -1021
c44 -8 98 -14 121 -15 36 0 42 -4 55 -32 9 -21 24 -35 43 -40 33 -8 98 -67 92
-83 -2 -6 -1 -28 3 -50 5 -28 3 -47 -7 -63 -18 -28 -9 -107 15 -134 24 -27 65
-22 108 12 26 21 44 28 60 24 25 -6 51 23 78 89 9 20 22 37 30 37 12 0 15 -16
14 -76 -1 -69 1 -78 22 -95 14 -12 31 -17 42 -14 20 7 24 -5 20 -57 -1 -15 5
-38 13 -50 9 -12 16 -34 16 -49 0 -30 24 -57 35 -39 12 19 24 10 33 -22 4 -18
18 -38 30 -44 40 -20 61 -46 67 -85 4 -21 11 -39 16 -39 5 0 27 12 49 26 46
31 64 25 32 -9 -25 -27 -29 -69 -8 -86 11 -10 24 -9 55 0 23 7 44 9 47 6 4 -3
2 -28 -2 -54 -8 -39 -14 -50 -39 -62 -17 -7 -43 -26 -60 -41 -16 -15 -44 -35
-61 -44 -17 -8 -34 -22 -37 -31 -5 -11 -21 -15 -61 -15 -69 0 -81 -11 -109
-101 -4 -11 -35 -23 -91 -38 -100 -25 -124 -26 -150 -6 -27 20 -64 19 -106 -4
-19 -11 -57 -31 -85 -46 -63 -32 -93 -56 -95 -75 -5 -32 1 -50 25 -78 l25 -30
-30 -12 c-17 -7 -41 -26 -55 -42 -21 -24 -24 -36 -19 -72 6 -39 4 -46 -18 -60
-29 -19 -171 -38 -249 -34 -52 3 -54 4 -65 38 -12 37 -17 41 -78 60 -37 12
-41 11 -58 -10 -17 -21 -20 -22 -63 -9 l-45 13 0 100 c0 183 36 400 74 451 12
16 28 45 34 64 16 45 15 130 -2 159 -11 20 -10 33 2 78 l15 54 51 0 c67 0 79
9 85 66 6 46 14 56 55 69 17 5 18 12 13 64 -4 33 -18 89 -32 126 -32 87 -32
113 0 125 19 7 25 17 25 40 0 31 3 34 52 44 40 9 44 42 14 116 -22 54 -33 101
-23 100 1 0 38 -7 82 -15z m-2655 -40 c245 -8 576 -17 737 -21 160 -4 297 -11
304 -15 15 -9 16 15 -46 -749 -20 -250 -40 -466 -44 -480 l-6 -25 -612 0
c-609 0 -611 0 -635 21 -13 12 -33 27 -45 33 -21 11 -23 19 -23 94 -1 70 -5
90 -30 142 -17 33 -30 66 -30 75 0 8 -16 33 -35 54 -19 22 -35 48 -35 58 0 11
-7 32 -15 49 -14 27 -14 32 0 51 8 13 15 34 15 48 0 33 26 70 49 70 28 0 41
22 48 78 5 44 3 53 -18 71 -13 11 -41 36 -61 55 l-38 34 0 100 c0 91 -3 106
-30 164 -16 34 -30 73 -30 86 0 27 -24 27 580 7z m1445 -44 c65 -7 64 -5 46
-76 -6 -22 -14 -83 -17 -135 l-7 -95 34 -35 c19 -20 68 -80 109 -134 41 -54
82 -102 92 -107 9 -5 37 -9 62 -9 46 0 67 -13 91 -54 10 -17 14 -16 62 14 l51
32 40 -23 c43 -25 40 -25 130 8 6 3 12 1 12 -5 0 -5 -21 -17 -46 -27 -25 -9
-48 -23 -50 -30 -8 -21 25 -75 51 -85 20 -8 25 -17 25 -44 0 -19 -8 -48 -17
-64 -17 -29 -17 -32 0 -67 9 -19 17 -42 17 -51 0 -8 16 -32 36 -52 29 -30 35
-42 30 -66 -9 -44 -19 -526 -11 -526 4 0 18 9 32 20 24 19 28 19 49 5 32 -20
51 -19 64 5 9 17 17 20 48 14 41 -8 52 -18 52 -51 0 -35 -33 -61 -87 -69 -57
-8 -77 -17 -121 -55 -18 -16 -43 -29 -55 -29 -33 0 -47 -19 -47 -61 0 -30 -7
-43 -35 -68 -20 -17 -42 -31 -51 -31 -19 0 -111 71 -119 91 -3 9 6 39 20 65
21 39 25 57 19 89 -11 71 -54 195 -93 268 -21 40 -40 82 -43 94 -9 34 -34 38
-86 15 -49 -22 -175 -34 -199 -19 -7 5 -13 25 -13 45 0 20 -4 43 -9 51 -13 20
-75 23 -296 13 -117 -5 -208 -4 -218 1 -17 8 -18 17 -13 85 45 540 97 1140
101 1150 5 13 245 16 360 3z m-3375 -280 c0 -19 -83 -111 -100 -111 -10 0 -26
-7 -35 -16 -15 -15 -17 -15 -35 1 -28 25 -25 32 13 40 38 8 63 29 83 67 11 21
22 28 44 28 17 0 30 -4 30 -9z m3228 -993 c18 -18 17 -931 0 -945 -7 -6 -75
-13 -150 -17 -76 -4 -144 -9 -152 -12 -21 -8 -28 -31 -35 -114 l-6 -75 -42 -7
c-52 -8 -99 -33 -112 -56 -5 -10 -18 -72 -28 -138 -20 -134 -32 -156 -99 -168
-21 -4 -45 -12 -51 -18 -19 -16 -15 -69 6 -92 14 -15 21 -39 23 -76 l3 -55
-58 -3 c-53 -3 -61 0 -93 27 -19 17 -41 31 -49 31 -8 0 -37 20 -65 45 l-51 45
-127 0 -128 0 -30 31 c-16 17 -51 44 -79 60 -46 26 -58 29 -147 29 -69 0 -101
4 -111 14 -14 15 -42 97 -51 157 -6 33 -23 66 -107 198 l-34 54 2 181 c2 99 8
194 13 212 6 17 22 101 35 185 19 120 31 167 55 213 16 32 30 73 30 90 0 17 9
45 20 61 13 19 20 47 20 77 0 37 4 48 19 53 10 3 346 7 745 9 400 2 730 6 733
10 11 11 89 6 101 -6z m193 -15 c5 -15 7 -44 4 -64 -8 -47 3 -54 60 -34 25 8
71 15 101 15 30 0 68 7 85 15 16 9 34 13 39 10 16 -10 107 -207 129 -279 27
-88 26 -122 -4 -171 -13 -22 -25 -47 -25 -56 0 -21 125 -129 149 -129 23 0 97
53 110 79 6 11 11 33 11 50 0 27 5 31 38 40 21 6 51 24 66 40 20 20 42 31 74
36 26 4 72 17 102 30 39 17 90 27 175 34 67 6 142 18 168 27 l48 16 -6 52 c-6
42 -4 54 12 68 47 43 112 41 160 -4 27 -26 29 -53 6 -126 -16 -50 -16 -56 -1
-82 l16 -28 -34 -7 c-19 -3 -39 -3 -44 0 -12 7 -120 -102 -169 -170 -31 -44
-33 -51 -27 -104 13 -107 13 -104 -19 -119 -38 -18 -84 -61 -147 -138 -28 -35
-66 -69 -86 -78 -23 -10 -46 -32 -59 -56 -21 -36 -22 -40 -7 -75 10 -24 25
-41 45 -48 40 -16 37 -43 -8 -83 -21 -18 -72 -64 -113 -102 -53 -48 -91 -74
-126 -86 -66 -22 -94 -48 -94 -89 0 -39 -9 -53 -35 -59 -19 -3 -20 -10 -17
-103 3 -70 9 -113 23 -144 23 -52 27 -172 6 -189 -7 -6 -25 -16 -40 -21 -23
-9 -30 -7 -45 11 -9 11 -30 32 -45 46 -29 27 -30 41 -11 144 4 22 0 30 -24 42
-22 11 -35 29 -47 66 -17 51 -54 90 -85 90 -10 0 -38 -9 -63 -20 -42 -19 -48
-19 -88 -5 -179 63 -288 69 -499 25 -229 -48 -266 -64 -299 -129 -13 -25 -33
-43 -61 -56 -33 -15 -46 -29 -70 -80 -51 -107 -104 -132 -57 -28 42 96 49 134
37 215 -22 156 -27 176 -47 202 -12 15 -19 34 -16 41 3 8 32 22 64 31 33 9 64
24 68 33 5 9 16 68 26 131 9 63 21 124 26 137 11 30 65 56 111 55 48 -2 58 16
58 107 0 47 5 74 14 84 11 10 53 15 161 19 94 3 150 9 158 17 9 9 12 132 12
484 0 260 4 478 8 485 5 7 32 12 73 12 61 0 65 -1 75 -27z m1585 -19 c36 -9
46 -36 38 -102 -4 -43 -2 -68 11 -97 10 -25 14 -52 10 -72 -5 -28 -1 -36 31
-65 63 -58 87 -57 111 3 8 22 21 39 29 39 37 0 -17 -100 -60 -111 -16 -5 -41
-20 -57 -35 -32 -30 -53 -27 -71 11 -6 14 -23 28 -37 31 -14 3 -32 7 -38 10
-15 4 -16 52 -4 106 12 51 -11 94 -70 131 l-47 29 31 46 c44 68 69 93 85 87 8
-3 25 -8 38 -11z m12 -467 c7 -15 22 -33 33 -40 10 -6 19 -17 19 -22 0 -10
-103 -105 -113 -105 -16 0 -14 38 4 66 16 26 20 47 17 84 -2 41 0 50 12 48 8
-2 21 -16 28 -31z m-3128 -1057 c22 -11 57 -38 79 -60 l40 -41 118 7 119 7 48
-42 c26 -23 62 -48 79 -56 18 -8 47 -26 66 -40 27 -20 46 -25 92 -25 49 0 60
-3 69 -21 17 -31 -11 -134 -60 -226 -25 -47 -25 -45 6 -83 23 -27 26 -36 20
-83 -8 -67 22 -185 61 -242 17 -24 47 -50 76 -64 l48 -24 80 27 c44 14 91 26
103 26 19 0 28 12 49 60 28 64 56 82 95 61 12 -6 37 -11 56 -11 33 0 36 -2 36
-29 0 -51 -29 -115 -70 -152 -32 -30 -40 -44 -40 -73 0 -32 -3 -36 -32 -44
-31 -8 -33 -12 -36 -54 -3 -45 -2 -47 42 -77 29 -21 47 -41 51 -60 8 -38 -4
-101 -20 -101 -6 0 -20 -9 -30 -20 -14 -15 -16 -29 -12 -64 6 -45 6 -45 -26
-48 -28 -3 -33 -8 -43 -43 -6 -22 -13 -47 -17 -55 -4 -8 -8 -44 -9 -79 l-3
-65 32 -9 c43 -13 96 -1 132 28 32 27 60 32 79 13 28 -28 5 -228 -26 -228 -5
0 -15 12 -23 27 -8 14 -30 33 -49 41 -19 7 -43 21 -52 29 -15 13 -22 14 -47 3
-36 -14 -64 -2 -85 38 -8 15 -23 35 -35 46 -15 13 -19 26 -14 47 3 18 -1 39
-15 61 -13 22 -21 59 -25 112 -5 63 -11 88 -35 125 -16 26 -42 80 -58 121 -24
62 -35 77 -72 101 -54 34 -226 103 -312 124 -89 23 -110 37 -110 80 0 25 -7
39 -30 57 l-29 23 29 44 c20 29 30 57 30 82 0 33 -4 40 -42 62 -24 14 -54 37
-67 51 -30 32 -64 33 -141 6 -30 -11 -59 -19 -63 -20 -4 0 -5 33 -1 74 7 73 6
74 -22 92 -39 25 -44 33 -44 75 0 20 -9 72 -20 115 -11 44 -20 102 -20 131 0
62 -24 95 -109 151 -46 31 -57 43 -59 69 l-3 32 58 4 c146 9 174 7 213 -13z"/>
<path d="M6003 12187 c-25 -5 -43 -16 -43 -23 0 -17 0 -17 56 -3 25 7 44 17
44 25 0 16 1 16 -57 1z"/>
<path d="M5873 12157 c-26 -6 -43 -16 -43 -24 0 -9 7 -12 18 -9 9 2 32 7 50
11 18 4 32 13 32 21 0 16 1 16 -57 1z"/>
<path d="M5743 12128 c-28 -6 -43 -15 -43 -24 0 -10 6 -14 18 -10 9 2 32 7 50
11 18 4 32 13 32 21 0 16 1 16 -57 2z"/>
<path d="M6032 12112 c-33 -28 -40 -42 -21 -42 14 0 79 50 79 61 0 17 -25 9
-58 -19z"/>
<path d="M5608 12098 c-23 -6 -38 -16 -38 -25 0 -9 6 -13 14 -10 8 3 31 9 50
13 21 3 36 12 36 20 0 16 -9 16 -62 2z"/>
<path d="M6120 12067 c-5 -15 -14 -38 -20 -52 -6 -16 -6 -26 1 -30 14 -10 53
85 40 98 -7 7 -13 2 -21 -16z"/>
<path d="M5478 12068 c-21 -6 -38 -16 -38 -23 0 -9 11 -10 50 -2 31 6 50 15
50 23 0 16 -9 16 -62 2z"/>
<path d="M5922 12032 c-33 -28 -40 -42 -20 -42 15 0 78 49 78 61 0 17 -24 9
-58 -19z"/>
<path d="M5375 12045 c-5 -2 -22 -6 -37 -9 -16 -4 -28 -12 -28 -19 0 -11 10
-11 50 -3 29 6 50 15 50 23 0 12 -13 15 -35 8z"/>
<path d="M5817 11953 c-38 -27 -47 -43 -24 -43 18 1 88 56 80 64 -10 10 -16 8
-56 -21z"/>
<path d="M6058 11915 c-11 -29 -13 -47 -7 -51 13 -7 12 -8 32 44 20 51 20 52
4 52 -7 0 -20 -20 -29 -45z"/>
<path d="M5712 11877 c-56 -41 -40 -62 18 -22 22 15 40 31 40 36 0 19 -18 15
-58 -14z"/>
<path d="M6011 11803 c-8 -21 -16 -44 -18 -50 -3 -7 1 -13 8 -13 8 0 22 19 32
43 20 51 21 57 4 57 -7 0 -19 -17 -26 -37z"/>
<path d="M5605 11795 c-22 -18 -37 -36 -33 -41 8 -8 88 44 88 57 0 20 -19 15
-55 -16z"/>
<path d="M5502 11721 c-42 -31 -54 -51 -29 -51 19 1 80 55 76 69 -3 8 -19 2
-47 -18z"/>
<path d="M5959 11676 c-15 -34 -18 -51 -10 -59 7 -7 16 4 31 38 14 33 17 52
11 58 -7 7 -17 -5 -32 -37z"/>
<path d="M7624 11699 c-7 -13 66 -80 79 -72 13 8 7 18 -33 51 -26 21 -41 28
-46 21z"/>
<path d="M5391 11639 c-28 -21 -39 -35 -32 -42 12 -12 94 50 85 64 -7 12 -4
13 -53 -22z"/>
<path d="M7725 11610 c-7 -11 53 -69 73 -70 22 0 12 18 -27 49 -23 18 -42 27
-46 21z"/>
<path d="M5282 11558 c-30 -21 -41 -33 -33 -41 9 -9 34 5 90 50 3 2 0 7 -5 12
-5 6 -26 -3 -52 -21z"/>
<path d="M5906 11550 c-19 -47 -20 -60 -6 -60 6 0 20 21 30 46 24 54 24 54 6
54 -8 0 -21 -18 -30 -40z"/>
<path d="M7820 11521 c0 -15 71 -72 81 -65 6 4 -3 20 -22 40 -31 33 -59 44
-59 25z"/>
<path d="M5178 11482 c-33 -23 -50 -52 -32 -52 14 0 84 56 84 68 0 18 -10 15
-52 -16z"/>
<path d="M5856 11427 c-19 -50 -20 -57 -6 -57 6 0 20 21 30 46 24 54 24 54 6
54 -7 0 -21 -19 -30 -43z"/>
<path d="M7924 11439 c-7 -13 66 -80 79 -72 13 8 7 18 -33 51 -26 21 -41 28
-46 21z"/>
<path d="M5081 11409 c-13 -11 -31 -24 -40 -29 -11 -6 -13 -12 -5 -19 12 -13
98 45 88 60 -8 13 -16 11 -43 -12z"/>
<path d="M8832 11399 c-9 -14 -20 -19 -34 -16 -29 8 -48 -2 -48 -27 0 -37 -13
-48 -44 -36 -34 13 -46 6 -46 -26 0 -30 -7 -30 -38 -2 l-24 23 -19 -27 c-19
-25 -22 -26 -42 -14 -12 8 -38 17 -59 20 l-36 7 -17 -53 c-23 -71 -29 -75 -53
-36 -19 30 -20 35 -7 55 8 12 15 32 15 44 0 19 -4 21 -35 15 -28 -6 -42 -2
-72 19 -47 31 -49 31 -60 -1 l-9 -27 -28 27 c-36 32 -40 32 -65 0 l-20 -26
-30 21 c-37 27 -54 9 -18 -19 32 -26 38 -61 15 -90 -23 -28 -23 -47 1 -59 10
-6 28 -27 40 -47 16 -27 27 -35 41 -31 21 5 24 -1 14 -27 -4 -9 -18 -16 -35
-16 -28 0 -69 -33 -69 -56 0 -21 62 -66 82 -60 10 3 27 9 38 12 15 5 22 0 29
-19 6 -14 18 -30 28 -36 17 -9 15 -12 -14 -43 -35 -36 -52 -90 -35 -111 8 -9
39 -13 108 -11 98 1 98 1 186 -44 l89 -45 47 25 c26 14 61 29 77 32 48 12 75
44 75 88 0 22 4 37 9 33 5 -3 16 2 25 10 13 14 16 13 26 -5 9 -17 8 -20 -9
-20 -22 0 -46 -34 -36 -50 3 -5 1 -18 -5 -29 -11 -21 3 -40 15 -21 15 24 57
31 82 14 18 -11 28 -13 36 -5 7 7 1 15 -21 28 -28 16 -47 55 -34 68 3 3 18 5
33 5 51 0 106 29 133 71 14 21 26 47 26 57 0 12 16 25 49 39 l50 21 0 63 c-1
102 -24 159 -65 159 -21 0 -24 5 -24 36 0 31 -3 35 -22 32 -19 -3 -24 3 -32
39 -8 38 -13 43 -42 49 -18 3 -40 15 -50 25 -23 25 -56 24 -72 -2z m46 -65
c27 -5 36 -17 67 -81 29 -60 42 -77 70 -88 35 -15 44 -32 42 -78 -2 -21 -11
-33 -42 -50 -30 -17 -43 -33 -53 -62 -17 -50 -37 -72 -74 -80 -24 -6 -35 -2
-57 19 -24 23 -32 25 -80 19 -73 -8 -85 -23 -77 -94 5 -54 4 -58 -17 -64 -12
-3 -43 -15 -68 -27 l-47 -20 -78 38 c-60 30 -91 39 -134 40 -75 2 -74 1 -56
29 9 13 16 36 16 51 0 29 -64 134 -82 134 -11 0 -7 28 13 77 12 28 11 34 -6
53 -10 11 -32 24 -48 28 -44 11 -54 33 -31 65 14 20 28 26 56 27 20 0 43 3 52
6 12 5 16 -1 16 -23 0 -21 11 -41 35 -66 66 -68 92 -72 156 -25 39 29 53 33
131 38 68 5 92 10 110 26 13 11 35 25 51 32 15 6 32 23 38 36 6 13 21 29 33
34 26 13 27 13 64 6z"/>
<path d="M4956 11317 c-22 -19 -35 -36 -29 -40 13 -8 95 52 87 64 -8 14 -16
11 -58 -24z"/>
<path d="M4857 11243 c-32 -23 -50 -53 -31 -53 11 0 84 62 84 71 0 15 -13 10
-53 -18z"/>
<path d="M4749 11165 c-32 -24 -44 -45 -26 -45 15 0 77 46 77 58 0 18 -12 15
-51 -13z"/>
<path d="M18227 11173 c-17 -16 -3 -23 48 -23 60 0 74 14 24 24 -41 8 -64 8
-72 -1z"/>
<path d="M18360 11160 c0 -5 23 -10 50 -10 28 0 50 5 50 10 0 6 -22 10 -50 10
-27 0 -50 -4 -50 -10z"/>
<path d="M18490 11160 c0 -5 25 -10 55 -10 30 0 55 5 55 10 0 6 -25 10 -55 10
-30 0 -55 -4 -55 -10z"/>
<path d="M18620 11160 c0 -5 25 -10 55 -10 30 0 55 5 55 10 0 6 -25 10 -55 10
-30 0 -55 -4 -55 -10z"/>
<path d="M18760 11160 c0 -5 23 -10 50 -10 28 0 50 5 50 10 0 6 -22 10 -50 10
-27 0 -50 -4 -50 -10z"/>
<path d="M18890 11160 c0 -5 25 -10 55 -10 30 0 55 5 55 10 0 6 -25 10 -55 10
-30 0 -55 -4 -55 -10z"/>
<path d="M19020 11160 c0 -5 25 -10 55 -10 30 0 55 5 55 10 0 6 -25 10 -55 10
-30 0 -55 -4 -55 -10z"/>
<path d="M19160 11160 c0 -5 18 -10 40 -10 22 0 40 5 40 10 0 6 -18 10 -40 10
-22 0 -40 -4 -40 -10z"/>
<path d="M4655 11094 c-11 -9 -28 -22 -39 -29 -10 -7 -15 -18 -11 -24 4 -7 22
0 50 20 25 18 42 36 39 40 -7 12 -16 11 -39 -7z"/>
<path d="M4527 11001 c-50 -38 -30 -52 24 -17 39 26 51 46 27 46 -7 0 -30 -14
-51 -29z"/>
<path d="M8926 10693 c-5 -6 75 -63 89 -63 3 0 5 7 5 15 0 8 -18 24 -40 35
-44 23 -44 23 -54 13z"/>
<path d="M8711 10637 c-27 -40 -31 -57 -11 -57 4 0 20 19 35 41 39 60 17 75
-24 16z"/>
<path d="M9046 10633 c-12 -12 -6 -19 33 -41 42 -24 65 -28 59 -12 -5 15 -84
61 -92 53z"/>
<path d="M8637 10527 c-18 -25 -25 -43 -19 -49 6 -6 21 6 41 35 21 31 27 47
18 50 -6 2 -25 -14 -40 -36z"/>
<path d="M9160 10557 c0 -19 79 -62 92 -49 6 6 -6 18 -36 36 -51 30 -56 31
-56 13z"/>
<path d="M8225 10499 c-16 -5 -54 -8 -83 -7 l-54 3 -38 -85 c-25 -55 -45 -86
-57 -88 -21 -4 -113 -100 -113 -117 0 -21 36 -45 68 -45 45 0 51 -19 14 -50
-31 -26 -40 -49 -24 -64 4 -4 12 -24 18 -44 8 -29 15 -37 32 -36 20 1 28 -13
23 -40 -3 -15 21 -36 41 -36 10 0 32 -10 48 -22 36 -26 39 -62 8 -95 -28 -30
-28 -87 1 -116 20 -20 22 -21 49 -4 28 16 30 16 48 -6 50 -57 64 -86 58 -116
-4 -17 -8 -31 -10 -31 -2 0 -19 8 -39 17 -19 9 -36 15 -39 12 -2 -2 -7 -25
-10 -51 -7 -45 -6 -48 24 -63 25 -13 30 -20 24 -38 -4 -12 -10 -38 -13 -57 -5
-29 -11 -36 -34 -38 -15 -2 -27 -9 -27 -16 0 -7 -14 -34 -31 -60 -18 -27 -28
-51 -23 -55 5 -5 34 -16 64 -26 30 -10 59 -21 63 -25 5 -4 -6 -21 -22 -38 -17
-17 -31 -38 -31 -46 0 -9 -15 -23 -32 -32 -33 -16 -108 -113 -108 -139 0 -16
22 -25 62 -25 21 0 38 9 56 30 22 25 34 30 71 30 39 0 49 5 82 41 40 43 54 44
70 2 5 -14 17 -27 27 -30 10 -2 26 -19 36 -38 10 -19 24 -31 31 -29 9 4 7 15
-9 45 l-21 40 25 21 c21 17 34 19 83 14 41 -4 69 -1 97 10 22 9 50 14 63 10
40 -10 95 12 112 45 15 28 14 30 -10 55 -40 40 -28 87 24 97 24 5 36 17 56 56
36 72 33 111 -10 150 -43 37 -71 39 -145 6 -30 -13 -57 -19 -58 -14 -2 5 1 24
7 41 21 59 13 115 -25 189 -20 37 -51 80 -70 94 -45 35 -64 74 -64 134 0 40
-4 54 -20 63 -11 7 -20 18 -20 24 0 19 -36 45 -72 50 -20 4 -49 0 -71 -10 -42
-17 -49 -6 -12 18 14 10 31 28 37 41 6 13 20 25 32 27 15 2 21 10 21 28 0 14
8 36 18 50 9 13 17 32 17 42 0 9 5 20 11 24 6 3 9 15 6 25 -4 13 0 19 13 19
10 0 20 6 23 14 3 8 20 16 38 18 18 2 34 9 37 17 3 10 -4 12 -32 9 -20 -2 -36
-2 -36 0 0 2 9 17 20 32 15 21 17 29 7 33 -7 3 -22 -8 -33 -24 -22 -33 -60
-39 -79 -12 -11 15 -15 15 -44 -6 -19 -14 -38 -20 -51 -16 -10 3 -29 1 -40 -5
-26 -14 -28 -12 -36 28 -5 27 -1 36 35 71 44 43 51 72 25 109 -16 24 -32 26
-79 11z m-20 -59 c3 -5 -1 -20 -8 -32 -30 -48 -27 -148 5 -170 7 -5 42 -6 78
-3 49 4 70 2 85 -9 20 -15 20 -15 -2 -53 -12 -21 -32 -57 -43 -81 -12 -24 -38
-53 -60 -68 -46 -31 -56 -54 -38 -91 21 -43 52 -54 103 -35 40 14 45 14 69 -1
16 -11 29 -32 36 -59 24 -99 33 -116 95 -187 71 -81 90 -124 81 -179 -18 -103
-18 -107 4 -135 26 -33 71 -36 115 -7 40 26 81 26 95 -1 18 -32 3 -67 -38 -93
-66 -42 -77 -61 -76 -132 1 -64 1 -64 -27 -64 -15 0 -40 -5 -56 -11 -15 -6
-59 -13 -98 -15 -38 -1 -87 -6 -107 -9 -26 -5 -43 -2 -60 9 -35 24 -61 19 -98
-19 -32 -34 -70 -47 -70 -25 0 20 29 68 45 74 23 8 36 51 25 81 -5 14 -26 32
-47 42 -50 23 -53 51 -11 78 26 16 35 31 46 78 10 40 22 63 38 74 22 14 24 22
24 105 0 78 -3 95 -26 134 -29 50 -77 94 -103 94 -28 0 -30 9 -14 47 20 50 10
95 -32 135 -19 18 -44 42 -55 53 -11 11 -35 37 -52 58 -31 38 -31 39 -15 67
24 40 21 83 -8 118 -34 40 -32 53 12 77 30 16 42 32 60 79 27 70 24 66 65 76
47 11 56 11 63 0z"/>
<path d="M9275 10491 c-6 -11 75 -62 87 -55 15 10 8 19 -32 42 -44 25 -47 26
-55 13z"/>
<path d="M8561 10417 c-27 -40 -31 -57 -11 -57 4 0 20 19 35 41 39 60 17 75
-24 16z"/>
<path d="M9306 10391 c-41 -6 -63 -31 -28 -31 41 0 82 13 82 26 0 8 -3 13 -7
13 -5 -1 -26 -5 -47 -8z"/>
<path d="M9168 10373 c-26 -3 -38 -9 -38 -20 0 -12 7 -14 38 -9 20 3 43 6 50
6 6 0 12 7 12 15 0 8 -6 14 -12 13 -7 -1 -30 -3 -50 -5z"/>
<path d="M9037 10351 c-39 -6 -53 -27 -17 -25 69 2 80 5 80 19 0 16 -2 16 -63
6z"/>
<path d="M8898 10333 c-26 -3 -38 -9 -38 -20 0 -12 7 -14 38 -9 20 3 45 6 55
6 9 0 17 7 17 15 0 8 -8 14 -17 13 -10 -1 -35 -3 -55 -5z"/>
<path d="M8763 10313 c-21 -3 -33 -10 -33 -19 0 -12 9 -14 48 -8 53 7 62 11
62 25 0 9 -16 9 -77 2z"/>
<path d="M8628 10293 c-17 -3 -28 -11 -28 -20 0 -11 6 -14 23 -9 12 3 34 6 50
6 17 0 27 5 27 15 0 15 -15 17 -72 8z"/>
<path d="M17937 10233 c-10 -10 -8 -63 2 -63 17 0 114 -143 128 -189 17 -58
17 -101 -1 -101 -7 0 -25 -12 -40 -26 -23 -23 -26 -35 -26 -90 0 -51 4 -68 24
-91 12 -15 21 -34 19 -40 -3 -7 5 -28 16 -47 18 -29 19 -35 6 -46 -8 -6 -18
-28 -21 -48 -9 -45 12 -180 30 -201 22 -25 46 -78 46 -101 0 -16 -4 -19 -17
-12 -10 5 -24 7 -31 5 -8 -3 -26 7 -42 22 -20 19 -30 23 -36 14 -4 -8 3 -20
19 -34 34 -26 34 -31 -3 -38 -41 -9 -38 -27 5 -27 19 0 35 -1 35 -2 0 -2 -8
-25 -19 -52 -16 -43 -24 -52 -57 -63 -22 -7 -50 -25 -63 -40 -20 -23 -22 -34
-18 -77 7 -72 -26 -156 -60 -156 -63 0 -84 -26 -168 -215 -13 -28 -39 -72 -60
-99 -36 -47 -40 -76 -10 -76 25 0 17 -14 -17 -34 -52 -29 -78 -58 -78 -82 0
-18 8 -25 38 -33 20 -6 48 -12 62 -13 24 -3 25 -6 24 -65 -1 -58 1 -63 21 -63
35 0 62 39 69 100 11 92 21 104 94 111 75 7 102 27 102 76 0 20 -6 36 -14 39
-8 3 -16 13 -19 22 -3 9 -10 31 -15 49 -10 31 -10 31 21 26 25 -4 38 1 60 21
31 29 47 33 47 13 0 -16 47 -61 73 -70 22 -8 47 1 47 18 0 7 12 16 28 20 15 3
37 13 50 21 20 13 22 20 16 64 l-7 50 32 0 c24 0 34 6 41 24 7 18 20 27 52 33
33 7 46 15 58 38 8 17 21 34 28 39 8 4 20 23 28 41 12 29 19 34 51 37 38 3 38
3 41 53 3 47 0 54 -43 103 -43 51 -45 56 -45 117 0 45 -5 68 -16 80 -15 15
-14 21 6 85 25 77 22 145 -8 190 -9 14 -21 34 -27 45 -7 14 -23 21 -53 23 -35
3 -43 7 -48 28 -5 19 -12 24 -40 24 -18 0 -44 5 -58 11 -22 10 -23 14 -13 36
9 21 8 27 -8 39 -10 8 -25 14 -32 14 -7 0 -13 10 -13 23 0 22 3 23 103 25 56
2 109 5 117 7 25 8 69 97 60 120 -5 11 -9 35 -9 54 -1 31 1 33 27 27 80 -20
77 -21 106 27 31 54 33 73 6 87 -11 6 -26 26 -34 45 -8 18 -23 38 -33 43 -34
18 -154 17 -211 -2 -40 -14 -68 -16 -108 -11 -49 6 -62 13 -118 66 -60 55 -84
68 -99 52z m132 -122 c44 -33 147 -41 205 -17 78 32 206 14 206 -29 0 -8 10
-23 22 -35 21 -19 21 -21 5 -55 -17 -35 -31 -43 -42 -25 -10 16 -71 12 -85 -5
-9 -11 -11 -33 -7 -73 5 -47 3 -63 -13 -87 -20 -30 -20 -30 -137 -35 l-118 -5
-3 -42 c-3 -35 1 -44 21 -58 22 -14 24 -19 14 -45 -15 -40 -3 -50 67 -57 48
-5 59 -10 67 -29 7 -20 16 -24 47 -24 34 0 42 -5 64 -39 35 -54 41 -96 22
-161 -26 -88 -28 -115 -10 -129 12 -10 16 -31 16 -78 0 -62 2 -67 40 -111 64
-72 68 -126 9 -120 -28 3 -33 -1 -43 -31 -7 -18 -21 -41 -31 -50 -11 -9 -25
-28 -32 -42 -8 -20 -21 -28 -51 -33 -26 -4 -45 -14 -55 -30 -11 -16 -23 -23
-35 -19 -27 7 -40 -16 -44 -76 -3 -53 -4 -54 -43 -68 -21 -7 -42 -19 -46 -25
-11 -17 -59 17 -59 41 0 27 -10 51 -22 51 -6 0 -33 -16 -60 -35 -47 -34 -49
-35 -78 -20 -28 14 -31 14 -37 -1 -9 -23 15 -119 38 -147 10 -14 19 -30 19
-36 0 -22 -46 -41 -97 -41 -62 0 -76 -14 -94 -100 -14 -68 -29 -87 -29 -37 0
30 -5 39 -30 52 -16 8 -43 15 -60 15 -48 0 -36 22 35 64 36 21 65 41 65 44 0
3 -12 15 -26 27 l-25 20 26 39 c15 22 51 90 80 153 56 119 80 142 131 129 19
-5 25 3 48 68 21 57 26 85 21 118 -7 54 0 64 61 87 44 17 51 24 69 71 13 34
29 57 47 66 59 31 63 86 13 182 -30 58 -35 77 -36 140 -1 57 3 77 17 93 16 18
16 24 5 52 -7 18 -16 47 -21 65 -5 19 -18 44 -29 56 -42 45 -18 156 33 156 44
0 31 148 -19 215 -68 91 -67 99 4 46z"/>
<path d="M8506 10212 c-3 -5 14 -23 37 -41 51 -39 66 -21 16 21 -35 30 -45 33
-53 20z"/>
<path d="M8610 10128 c1 -19 77 -71 85 -57 4 5 5 11 4 13 -2 1 -19 14 -37 29
-37 29 -52 34 -52 15z"/>
<path d="M9413 10015 c0 -33 2 -45 4 -27 2 18 2 45 0 60 -2 15 -4 0 -4 -33z"/>
<path d="M8716 10051 c-5 -7 15 -29 56 -60 32 -24 42 0 12 25 -41 35 -62 45
-68 35z"/>
<path d="M8820 9961 c0 -5 18 -23 39 -40 50 -40 68 -22 20 19 -34 29 -59 38
-59 21z"/>
<path d="M9413 9860 c0 -36 2 -50 4 -32 2 17 2 47 0 65 -2 17 -4 3 -4 -33z"/>
<path d="M8920 9882 c0 -9 74 -72 84 -72 18 0 1 31 -28 54 -35 26 -56 33 -56
18z"/>
<path d="M9026 9801 c-9 -13 74 -75 85 -64 7 7 -3 21 -29 42 -43 33 -48 36
-56 22z"/>
<path d="M9413 9695 c0 -38 2 -53 4 -32 2 20 2 52 0 70 -2 17 -4 1 -4 -38z"/>
<path d="M7964 9739 c-4 -8 -26 -9 -65 -5 -58 7 -60 6 -104 -31 -25 -21 -55
-53 -66 -72 -19 -32 -20 -33 -39 -16 -24 22 -48 13 -105 -36 -31 -27 -36 -37
-31 -61 3 -16 0 -38 -7 -48 -9 -16 -9 -24 1 -40 10 -17 10 -26 -2 -49 -17 -31
-13 -41 17 -41 10 0 32 -8 48 -17 25 -15 29 -22 24 -43 -4 -14 -11 -27 -16
-28 -5 -2 -23 -24 -40 -48 -19 -28 -37 -44 -51 -44 -16 0 -19 -5 -15 -22 4
-12 1 -28 -4 -35 -17 -20 -1 -33 40 -33 30 0 40 -4 44 -20 4 -17 14 -20 57
-20 42 0 55 5 75 26 28 30 144 73 198 74 24 0 40 5 43 15 8 20 -13 45 -37 45
-14 0 -21 9 -26 31 -3 17 -11 33 -18 35 -7 3 -10 15 -8 28 3 13 -5 54 -16 91
-12 37 -19 70 -16 73 3 3 22 -1 44 -8 21 -7 45 -9 52 -4 7 4 23 8 35 9 13 0
32 9 43 19 11 10 35 25 53 34 36 19 47 51 29 86 -6 12 -10 34 -9 51 3 27 0 30
-39 39 -31 6 -43 14 -43 27 0 42 -28 66 -46 38z m3 -98 c47 -37 52 -60 18 -87
-32 -25 -86 -35 -131 -22 -40 11 -80 -4 -89 -33 -4 -11 -4 -46 0 -76 l7 -56
-58 8 c-78 9 -82 12 -94 53 -25 90 -6 129 55 118 34 -7 39 -4 107 64 70 71 71
71 111 64 23 -3 56 -18 74 -33z m-188 -417 c14 -32 9 -40 -30 -48 -18 -3 -47
-18 -66 -32 -38 -29 -53 -25 -53 15 0 32 43 77 80 84 49 9 57 7 69 -19z"/>
<path d="M9135 9719 c-8 -12 52 -68 73 -69 22 0 12 18 -27 49 -26 21 -42 28
-46 20z"/>
<path d="M9237 9634 c-4 -4 13 -22 36 -40 26 -21 45 -30 51 -24 5 5 8 11 5 13
-2 2 -19 15 -37 30 -35 28 -44 31 -55 21z"/>
<path d="M17580 9556 c0 -8 18 -28 39 -45 53 -42 65 -21 14 24 -42 38 -53 42
-53 21z"/>
<path d="M17680 9471 c0 -18 74 -71 84 -61 5 5 8 11 5 13 -2 2 -19 15 -37 30
-35 28 -52 34 -52 18z"/>
<path d="M17785 9391 c-7 -12 53 -70 73 -71 19 0 14 14 -10 36 -45 39 -56 45
-63 35z"/>
<path d="M17886 9301 c-9 -13 74 -75 85 -64 7 7 -3 21 -29 42 -43 33 -48 36
-56 22z"/>
<path d="M17925 9135 c-5 -2 -27 -6 -48 -10 -23 -4 -37 -11 -34 -18 4 -13 8
-13 70 -2 23 4 37 11 37 20 0 15 -5 17 -25 10z"/>
<path d="M17732 9103 c-36 -7 -20 -28 19 -25 47 4 69 12 69 23 0 9 -45 10 -88
2z"/>
<path d="M17608 9083 c-16 -3 -28 -11 -28 -19 0 -12 8 -14 38 -9 56 10 72 15
72 26 0 9 -30 10 -82 2z"/>
<path d="M17483 9063 c-21 -3 -33 -10 -33 -19 0 -12 9 -14 48 -8 55 8 64 12
57 25 -6 9 -12 9 -72 2z"/>
<path d="M17361 9041 c-19 -3 -36 -12 -39 -20 -4 -11 3 -13 34 -8 22 4 45 7
52 7 6 0 12 7 12 15 0 16 -4 16 -59 6z"/>
<path d="M8466 8802 c-6 -10 42 -92 55 -92 15 0 10 18 -16 60 -26 42 -31 45
-39 32z"/>
<path d="M8018 5483 c-30 -9 -48 -20 -48 -30 0 -9 6 -13 14 -10 8 3 33 11 55
17 29 8 39 15 35 25 -4 8 -7 15 -8 14 0 -1 -22 -8 -48 -16z"/>
<path d="M7883 5443 c-39 -13 -58 -33 -32 -33 29 0 99 24 96 33 -5 17 -18 17
-64 0z"/>
<path d="M7755 5406 c-22 -6 -38 -16 -35 -21 9 -18 100 5 100 25 0 12 -14 12
-65 -4z"/>
<path d="M12147 5351 c-28 -43 -33 -61 -17 -61 17 0 64 80 53 91 -6 6 -19 -4
-36 -30z"/>
<path d="M7618 5367 c-24 -8 -35 -16 -30 -23 8 -14 102 11 102 26 0 13 -25 12
-72 -3z"/>
<path d="M16684 5335 c12 -46 25 -75 36 -75 13 0 12 1 -1 56 -7 27 -17 44 -26
44 -11 0 -13 -7 -9 -25z"/>
<path d="M16724 5208 c4 -13 9 -35 12 -50 4 -16 13 -28 21 -28 11 0 14 6 9 23
-4 12 -9 34 -12 50 -4 15 -13 27 -21 27 -11 0 -14 -6 -9 -22z"/>
<path d="M17365 5161 c-32 -14 -63 -53 -80 -100 -23 -66 -19 -87 19 -116 25
-19 35 -36 40 -67 8 -48 30 -78 58 -78 30 0 21 -14 -43 -70 -72 -63 -69 -85 8
-57 63 23 71 22 66 -7 -3 -16 2 -28 14 -37 11 -8 25 -25 32 -38 9 -15 16 -20
23 -13 7 7 6 17 -1 30 -8 15 -8 23 0 28 6 3 9 17 6 31 -4 24 -4 24 28 -7 31
-30 35 -31 92 -25 l60 7 11 -31 c7 -20 23 -37 47 -48 23 -11 34 -22 31 -32 -3
-9 -8 -47 -11 -86 -4 -38 -13 -80 -21 -92 -31 -50 -10 -133 35 -133 9 0 48
-20 86 -45 85 -56 135 -73 170 -57 20 9 38 8 82 -3 71 -19 137 -19 152 -2 6 8
8 16 5 19 -3 4 8 9 25 13 35 8 48 21 53 56 l3 26 46 -13 c64 -19 100 -57 129
-136 7 -22 16 -28 40 -28 17 0 48 -9 70 -20 47 -24 97 -26 128 -4 18 12 22 25
22 68 0 49 -3 56 -35 80 -30 23 -35 33 -35 70 0 23 -4 46 -9 52 -10 10 -71
122 -71 129 0 3 11 5 24 5 37 0 70 32 63 61 -10 39 -66 98 -117 124 -58 29
-59 31 -67 94 -7 63 -27 81 -120 115 -138 49 -179 78 -216 151 -36 72 -64 94
-128 102 -41 4 -61 13 -85 35 l-31 29 -44 -20 c-24 -12 -63 -21 -87 -21 -72 0
-84 -12 -77 -73 5 -43 1 -61 -18 -101 l-25 -49 -26 42 c-21 33 -27 57 -29 109
-4 87 -9 96 -59 88 -31 -5 -48 -1 -81 18 -47 27 -121 40 -152 27z"/>
<path d="M16767 5103 c-11 -18 13 -103 29 -103 11 0 13 7 8 28 -13 52 -30 87
-37 75z"/>
<path d="M16798 4974 c-9 -8 25 -105 35 -101 11 3 11 10 -2 62 -11 42 -20 53
-33 39z"/>
<path d="M16596 4948 c-2 -7 -10 -42 -17 -78 -13 -64 -18 -72 -79 -119 -19
-14 -24 -27 -23 -57 2 -54 -15 -80 -97 -158 -76 -71 -101 -86 -191 -110 -72
-20 -87 -36 -71 -80 17 -45 15 -60 -8 -81 -11 -10 -20 -25 -20 -34 0 -9 9 -24
20 -34 14 -11 20 -29 20 -56 0 -48 14 -89 42 -118 18 -20 20 -27 10 -48 -7
-14 -12 -34 -12 -44 0 -29 121 -138 168 -150 22 -6 58 -19 79 -29 30 -13 59
-16 126 -14 79 3 87 5 87 23 0 11 26 47 57 80 52 54 57 64 61 113 4 50 2 56
-32 93 -20 22 -36 44 -36 49 1 18 46 61 78 74 42 16 89 71 97 112 4 22 -2 57
-20 107 -14 41 -25 96 -25 123 0 44 4 52 45 91 l45 44 0 71 c0 69 1 71 24 69
35 -3 37 15 2 24 -15 4 -35 17 -43 28 -9 14 -25 21 -48 21 -23 0 -46 10 -76
36 -23 19 -55 42 -70 50 -34 17 -88 18 -93 2z"/>
<path d="M16980 4786 c0 -14 86 -40 102 -30 18 11 6 22 -29 28 -21 4 -46 9
-55 12 -12 3 -18 0 -18 -10z"/>
<path d="M17110 4757 c0 -11 14 -18 45 -22 56 -9 59 -9 63 3 1 5 -10 12 -26
15 -17 3 -41 9 -56 13 -20 5 -26 2 -26 -9z"/>
<path d="M17240 4725 c0 -8 8 -15 18 -15 9 0 27 -3 40 -6 15 -5 22 -2 22 9 0
8 -13 17 -31 21 -45 9 -49 8 -49 -9z"/>
<path d="M15307 4649 c-16 -9 -18 -20 -12 -77 9 -104 12 -108 76 -162 69 -57
179 -187 179 -210 0 -9 16 -48 35 -89 20 -42 35 -88 35 -109 0 -20 9 -52 20
-69 17 -28 24 -32 49 -27 32 7 30 9 116 -124 36 -55 56 -99 61 -129 4 -27 15
-52 26 -62 11 -9 46 -42 78 -73 44 -43 63 -55 79 -51 18 5 21 1 21 -25 0 -42
19 -54 82 -50 51 3 53 4 53 32 0 24 5 31 28 37 38 10 56 26 73 67 24 57 18
120 -16 175 -29 45 -32 47 -75 47 l-45 0 0 55 c0 30 -4 55 -10 55 -5 0 -16 13
-24 29 -9 16 -28 33 -44 39 -34 12 -66 72 -59 108 6 36 -12 207 -24 219 -7 7
-14 5 -22 -6 -21 -28 -90 11 -102 59 -11 44 -24 54 -48 37 -31 -21 -37 -19
-37 15 0 22 -10 42 -34 66 l-33 34 -25 -19 c-30 -24 -42 -17 -67 41 -11 25
-36 64 -55 86 -34 37 -39 39 -81 34 -39 -4 -49 -1 -80 27 -38 33 -83 40 -118
20z"/>
<path d="M17500 4543 c0 -17 33 -93 41 -93 16 0 16 16 -2 58 -16 36 -39 57
-39 35z"/>
<path d="M17551 4413 c0 -10 8 -36 18 -57 24 -55 38 -28 16 30 -17 44 -36 59
-34 27z"/>
<path d="M17167 4356 c-25 -32 -30 -34 -109 -40 -62 -6 -95 -14 -128 -33 -77
-44 -80 -48 -80 -125 0 -46 -6 -80 -17 -101 -29 -54 -51 -224 -33 -257 9 -17
9 -29 -1 -51 -10 -27 -9 -34 10 -59 14 -20 21 -44 21 -74 0 -50 19 -70 56 -56
17 7 22 19 26 63 3 34 12 64 25 81 l21 26 15 -38 c8 -20 33 -53 54 -73 32 -30
46 -36 88 -37 32 -1 59 -9 77 -22 47 -35 70 -19 24 17 -13 10 -26 29 -30 41
-4 12 -11 22 -15 22 -4 0 -5 15 -3 34 3 29 0 36 -26 51 -27 16 -30 23 -36 94
-6 80 -20 103 -56 94 -18 -5 -20 0 -20 41 l0 46 36 0 c47 0 68 12 94 56 20 31
21 38 8 50 -8 8 -44 17 -81 21 -45 4 -67 10 -67 19 0 9 14 11 54 7 71 -7 137
22 157 69 7 18 26 47 42 65 34 39 31 73 -8 91 -44 20 -71 14 -98 -22z"/>
<path d="M17607 4258 c18 -49 30 -65 39 -55 11 11 -26 97 -42 97 -12 0 -11 -7
3 -42z"/>
<path d="M17643 4168 c2 -7 10 -30 18 -50 7 -21 19 -38 27 -38 8 0 12 6 9 13
-2 6 -10 29 -18 50 -7 20 -19 37 -27 37 -8 0 -12 -6 -9 -12z"/>
<path d="M17696 4052 c-4 -6 1 -30 10 -54 21 -52 20 -52 33 -44 7 5 5 21 -6
49 -19 50 -29 62 -37 49z"/>
<path d="M17443 3925 c0 -22 2 -30 4 -17 2 12 2 30 0 40 -3 9 -5 -1 -4 -23z"/>
<path d="M17740 3921 c0 -25 33 -91 46 -91 11 0 10 9 -5 47 -17 43 -41 69 -41
44z"/>
<path d="M17443 3805 c0 -33 2 -45 4 -27 2 18 2 45 0 60 -2 15 -4 0 -4 -33z"/>
<path d="M17793 3803 c-9 -3 -8 -12 2 -35 10 -24 10 -36 1 -51 -9 -15 -7 -22
11 -37 l23 -18 -34 -20 c-47 -28 -63 -56 -75 -136 -5 -37 -12 -70 -15 -73 -2
-3 -30 11 -60 31 -31 20 -63 36 -71 36 -8 0 -22 -12 -32 -27 -35 -57 -88 -74
-96 -30 l-4 22 -2 -22 c-1 -28 -5 -28 -41 -3 -21 15 -31 17 -36 9 -4 -7 4 -20
19 -31 28 -20 42 -65 32 -98 -5 -15 -15 -20 -43 -20 -58 0 -88 -20 -84 -57 3
-29 2 -30 -35 -29 -34 1 -40 -3 -52 -31 -8 -18 -24 -36 -35 -39 -30 -9 -76
-55 -76 -75 0 -31 -12 -50 -43 -66 -17 -8 -55 -38 -84 -66 -53 -50 -53 -50
-106 -44 -77 10 -106 -3 -178 -77 -57 -58 -69 -66 -103 -66 -25 0 -52 -10 -82
-31 -44 -30 -45 -31 -39 -74 5 -30 2 -52 -10 -75 -21 -41 -13 -93 21 -127 33
-33 31 -51 -8 -55 -31 -3 -33 -5 -33 -43 0 -22 -8 -52 -18 -66 -16 -23 -16
-33 -6 -75 13 -55 28 -87 64 -140 22 -33 25 -47 25 -133 0 -107 5 -121 60
-150 47 -25 69 -83 46 -123 -9 -14 -16 -47 -16 -71 0 -35 -5 -49 -20 -60 -23
-16 -60 -82 -60 -108 0 -9 24 -32 53 -52 28 -20 69 -51 90 -69 l38 -32 66 11
c46 8 81 22 117 46 28 19 62 40 76 47 14 7 39 25 55 40 17 16 61 44 98 64 59
31 74 35 114 29 25 -3 55 -15 66 -26 16 -16 28 -18 69 -14 69 9 80 20 72 74
-9 63 10 87 83 102 32 6 67 18 77 26 11 8 35 15 53 15 21 0 43 10 65 29 l33
28 112 -6 c106 -7 115 -9 143 -36 24 -23 30 -37 30 -69 0 -46 41 -125 85 -166
24 -23 28 -23 38 -9 7 9 27 37 44 63 24 33 39 46 57 46 36 0 57 25 50 59 -4
16 -2 36 3 45 7 13 12 14 26 3 16 -11 17 -16 2 -56 -8 -24 -40 -70 -70 -103
-50 -53 -56 -65 -53 -97 4 -54 37 -55 74 -2 16 22 34 39 39 37 6 -2 9 -25 7
-52 -3 -43 0 -51 24 -71 26 -21 27 -24 16 -61 -9 -30 -9 -47 0 -73 14 -41 49
-98 74 -121 64 -58 103 -88 117 -88 33 0 69 25 82 57 8 18 18 33 24 33 27 0
62 -22 71 -44 10 -28 64 -60 86 -52 8 3 22 22 32 42 23 49 81 107 100 99 8 -3
53 0 99 6 95 14 109 26 100 90 -3 27 1 46 16 71 11 18 24 58 28 89 4 35 16 71
33 95 14 21 33 59 41 84 13 38 24 50 65 73 78 42 108 127 45 127 -16 0 -25 6
-25 15 0 11 11 15 38 15 55 0 88 38 96 112 3 32 10 68 15 80 6 13 14 97 20
188 12 181 6 231 -33 290 -13 19 -26 47 -30 61 -3 14 -20 41 -38 61 -88 95
-88 95 -88 152 0 53 -1 55 -31 61 -36 8 -49 36 -49 103 0 63 -10 75 -61 78
-33 2 -47 8 -62 29 -16 21 -25 25 -47 20 -52 -11 -59 9 -57 158 2 121 0 135
-20 168 -16 26 -23 52 -23 88 0 38 -6 60 -22 81 -34 46 -58 35 -58 -26 0 -14
-10 -30 -26 -41 -25 -16 -27 -16 -39 0 -7 10 -16 44 -20 75 -14 122 -37 238
-51 260 -8 12 -25 22 -38 22 -19 0 -26 -9 -40 -58 -17 -54 -17 -62 -2 -112 21
-70 21 -124 -1 -141 -9 -8 -29 -33 -44 -57 -24 -38 -26 -49 -22 -106 l6 -64
-55 -7 c-84 -11 -100 4 -128 112 -8 33 -17 44 -36 49 -25 6 -78 1 -121 -12
-22 -6 -23 -4 -23 52 0 53 4 62 43 113 24 31 49 66 56 79 14 27 8 52 -13 52
-8 0 -19 14 -25 30 -12 34 -16 35 -64 15 -49 -20 -107 -19 -166 5 l-50 19 -21
-27 c-19 -24 -29 -27 -78 -27 -60 0 -95 21 -117 69 -5 13 -15 21 -22 19z"/>
<path d="M17443 3670 c0 -30 2 -43 4 -27 2 15 2 39 0 55 -2 15 -4 2 -4 -28z"/>
<path d="M17443 3535 c0 -33 2 -45 4 -27 2 18 2 45 0 60 -2 15 -4 0 -4 -33z"/>
<path d="M12175 3535 c3 -14 7 -36 10 -50 6 -29 25 -34 25 -6 0 40 -13 81 -26
81 -10 0 -13 -8 -9 -25z"/>
<path d="M16369 3487 c-43 -27 -79 -53 -79 -59 0 -5 -7 -26 -16 -45 -16 -33
-16 -35 2 -53 16 -16 38 -19 144 -21 75 -1 146 3 176 11 47 11 56 10 99 -9 31
-14 68 -21 106 -21 32 0 79 -7 104 -16 42 -14 49 -14 70 0 26 17 51 85 42 110
-10 26 -69 56 -108 56 -22 0 -61 13 -94 30 -82 43 -146 58 -263 62 l-104 4
-79 -49z"/>
<path d="M17255 3529 c-4 -5 -5 -12 -4 -13 71 -53 81 -58 90 -49 7 7 -1 18
-23 35 -49 36 -56 39 -63 27z"/>
<path d="M12200 3411 c0 -40 13 -81 26 -81 10 0 13 8 9 25 -3 14 -7 36 -10 50
-6 29 -25 34 -25 6z"/>
<path d="M12224 3269 c3 -17 6 -40 6 -50 0 -11 7 -19 16 -19 13 0 15 7 10 31
-3 17 -6 40 -6 50 0 11 -7 19 -16 19 -13 0 -15 -7 -10 -31z"/>
<path d="M12243 3153 c3 -10 8 -35 11 -55 5 -25 11 -35 20 -32 18 7 -1 104
-21 104 -9 0 -13 -7 -10 -17z"/>
<path d="M12274 2988 c8 -59 10 -63 26 -53 7 4 9 19 5 38 -11 55 -16 67 -27
67 -7 0 -8 -18 -4 -52z"/>
<path d="M13029 2961 c-30 -29 -49 -58 -53 -81 -15 -73 -27 -91 -55 -86 -38 9
-55 -6 -48 -42 8 -38 -20 -77 -61 -85 -37 -8 -62 -32 -62 -61 0 -13 -12 -31
-28 -43 -25 -19 -34 -20 -87 -11 -48 9 -63 8 -86 -6 -16 -9 -49 -16 -82 -16
-69 0 -114 -16 -123 -43 -3 -12 -18 -32 -33 -44 -34 -27 -19 -42 19 -19 41 24
55 12 28 -24 l-21 -30 21 -42 c11 -24 23 -53 27 -65 4 -14 17 -24 35 -28 39
-9 38 -23 -1 -27 -27 -3 -33 -9 -49 -58 -11 -30 -19 -69 -20 -87 0 -17 -5 -35
-11 -39 -6 -3 -8 -17 -5 -30 7 -28 -41 -101 -80 -122 -13 -7 -27 -24 -30 -37
-9 -35 20 -110 57 -153 32 -36 32 -36 25 -119 -10 -127 -15 -123 167 -123 172
0 184 4 194 62 4 27 19 51 54 86 31 31 49 58 49 73 0 13 7 33 15 43 8 11 15
31 15 45 0 17 16 44 45 76 30 32 45 58 45 76 0 16 16 47 41 77 39 50 40 54 44
138 3 70 9 96 32 139 26 50 26 55 11 72 -15 17 -15 21 0 53 9 19 19 48 22 64
4 21 12 30 30 33 31 5 41 20 29 50 -5 14 -9 34 -9 45 0 20 1 20 18 5 26 -24
41 -21 48 8 7 30 -4 132 -17 157 -7 13 -4 20 11 28 28 15 29 104 1 119 -11 6
-21 27 -25 53 -7 45 -21 69 -40 67 -6 -1 -32 -22 -57 -48z"/>
<path d="M12294 2873 c10 -56 16 -73 27 -73 10 0 11 20 3 73 -4 23 -12 37 -21
37 -12 0 -14 -8 -9 -37z"/>
<path d="M12318 2775 c-11 -11 15 -105 29 -105 9 0 12 7 9 18 -3 9 -8 34 -12
55 -6 35 -14 44 -26 32z"/>
<path d="M12346 2641 c-12 -19 5 -101 21 -101 12 0 13 9 8 43 -9 53 -20 74
-29 58z"/>
<path d="M12223 2382 c-38 -24 -57 -52 -35 -52 17 0 82 52 82 65 0 19 3 20
-47 -13z"/>
<path d="M12112 2306 c-44 -31 -45 -33 -37 -45 4 -7 22 0 51 20 24 16 42 34
39 40 -9 13 -16 11 -53 -15z"/>
<path d="M11997 2225 c-37 -26 -48 -45 -24 -45 18 1 88 56 80 64 -10 10 -16 8
-56 -19z"/>
<path d="M11895 2153 c-52 -34 -50 -32 -39 -43 13 -13 98 46 89 60 -8 13 -4
14 -50 -17z"/>
</g>
</svg>
